<svg width="1600" height="1200" viewBox="0 0 1600 1200" fill="none" xmlns="http://www.w3.org/2000/svg">
<g clip-path="url(#clip0_26_3)">
<rect width="1600" height="1200" fill="url(#paint0_linear_26_3)"/>
<g opacity="0.8" filter="url(#filter0_iif_26_3)">
<g clip-path="url(#clip1_26_3)">
<rect x="1350.14" y="-148" width="300.923" height="300.923" rx="150.461" transform="rotate(70.202 1350.14 -148)" fill="#498EF5"/>
<rect x="1350.14" y="-148" width="300.923" height="300.923" rx="150.461" transform="rotate(70.202 1350.14 -148)" fill="url(#paint1_radial_26_3)"/>
<rect x="1350.14" y="-148" width="300.923" height="300.923" rx="150.461" transform="rotate(70.202 1350.14 -148)" fill="url(#paint2_radial_26_3)"/>
<rect x="1350.14" y="-148" width="300.923" height="300.923" rx="150.461" transform="rotate(70.202 1350.14 -148)" fill="url(#paint3_radial_26_3)" fill-opacity="0.7"/>
<g filter="url(#filter1_f_26_3)">
<circle cx="1152.67" cy="-11.2193" r="5.50468" transform="rotate(5.83118 1152.67 -11.2193)" fill="white"/>
<circle cx="1152.67" cy="-11.2193" r="3.78099" transform="rotate(5.83118 1152.67 -11.2193)" stroke="white" stroke-width="3.44739"/>
</g>
<g filter="url(#filter2_f_26_3)">
<ellipse cx="1143.38" cy="9.86929" rx="5.50468" ry="9.17448" transform="rotate(17.9897 1143.38 9.86929)" fill="white"/>
<path d="M1146.97 11.037C1146.27 13.2006 1145.13 14.908 1143.94 15.9417C1142.73 17.0016 1141.72 17.1648 1141.08 16.9558C1140.43 16.7468 1139.71 16.0232 1139.35 14.4503C1139 12.9164 1139.08 10.8651 1139.78 8.70155C1140.48 6.53799 1141.62 4.83059 1142.81 3.79693C1144.03 2.73699 1145.04 2.57376 1145.68 2.78277C1146.32 2.99178 1147.04 3.71535 1147.4 5.28825C1147.76 6.82216 1147.68 8.87348 1146.97 11.037Z" stroke="white" stroke-width="3.44739"/>
</g>
<g filter="url(#filter3_f_26_3)">
<circle cx="1251.91" cy="52.0079" r="154.918" transform="rotate(70.202 1251.91 52.0079)" stroke="white" stroke-width="24.5627"/>
</g>
</g>
</g>
<g opacity="0.8" filter="url(#filter4_iif_26_3)">
<g clip-path="url(#clip2_26_3)">
<rect x="61.137" y="824" width="271.671" height="271.671" rx="135.836" transform="rotate(20.0494 61.137 824)" fill="#816EF9"/>
<rect x="61.137" y="824" width="271.671" height="271.671" rx="135.836" transform="rotate(20.0494 61.137 824)" fill="url(#paint4_radial_26_3)"/>
<rect x="61.137" y="824" width="271.671" height="271.671" rx="135.836" transform="rotate(20.0494 61.137 824)" fill="url(#paint5_radial_26_3)"/>
<rect x="61.137" y="824" width="271.671" height="271.671" rx="135.836" transform="rotate(20.0494 61.137 824)" fill="url(#paint6_radial_26_3)" fill-opacity="0.7"/>
<g filter="url(#filter5_f_26_3)">
<path d="M105.37 902.155C109.335 907.044 97.8825 918.145 82.6566 930.494C67.4307 942.844 54.1975 951.766 50.2318 946.876C46.266 941.987 53.0696 925.138 68.2954 912.788C83.5213 900.439 101.404 897.265 105.37 902.155Z" fill="white"/>
<path d="M104.021 903.249C104.453 903.782 104.659 904.643 104.018 906.275C103.372 907.921 101.989 909.975 99.8974 912.39C95.7345 917.196 89.1688 922.977 81.5627 929.146C73.9566 935.315 66.9431 940.548 61.3798 943.631C58.5842 945.18 56.2874 946.111 54.5426 946.403C52.8123 946.694 52.0128 946.315 51.5805 945.782C51.0359 945.111 50.6667 943.733 50.9623 941.447C51.2491 939.228 52.1281 936.463 53.6273 933.392C56.6211 927.259 61.9663 920.158 69.3894 914.137C76.8124 908.116 84.8621 904.353 91.4782 902.691C94.7913 901.859 97.6774 901.57 99.9068 901.748C102.204 901.931 103.476 902.577 104.021 903.249Z" stroke="white" stroke-width="3.47313"/>
</g>
<g filter="url(#filter6_f_26_3)">
<circle cx="42.4897" cy="959.941" r="4.9696" transform="rotate(0.838939 42.4897 959.941)" fill="white"/>
<circle cx="42.4897" cy="959.941" r="3.23303" transform="rotate(0.838939 42.4897 959.941)" stroke="white" stroke-width="3.47313"/>
</g>
<g filter="url(#filter7_f_26_3)">
<ellipse cx="35.7875" cy="979.638" rx="4.9696" ry="8.28267" transform="rotate(12.9975 35.7875 979.638)" fill="white"/>
<path d="M38.9378 980.365C38.482 982.34 37.6045 983.934 36.6443 984.929C35.6562 985.954 34.8246 986.134 34.3153 986.016C33.806 985.899 33.1373 985.373 32.6982 984.019C32.2715 982.703 32.1816 980.885 32.6373 978.911C33.0931 976.936 33.9706 975.342 34.9308 974.346C35.9189 973.322 36.7505 973.142 37.2598 973.259C37.7691 973.377 38.4378 973.903 38.8769 975.257C39.3035 976.573 39.3935 978.39 38.9378 980.365Z" stroke="white" stroke-width="3.47313"/>
</g>
<g filter="url(#filter8_f_26_3)">
<circle cx="142.95" cy="1007.78" r="139.859" transform="rotate(20.0494 142.95 1007.78)" stroke="white" stroke-width="24.7461"/>
</g>
</g>
</g>
<g opacity="0.8" filter="url(#filter9_iif_26_3)">
<g clip-path="url(#clip3_26_3)">
<rect x="68.564" y="25" width="312.149" height="312.149" rx="156.075" transform="rotate(3.48184 68.564 25)" fill="#6F47EB"/>
<rect x="68.564" y="25" width="312.149" height="312.149" rx="156.075" transform="rotate(3.48184 68.564 25)" fill="url(#paint7_radial_26_3)"/>
<rect x="68.564" y="25" width="312.149" height="312.149" rx="156.075" transform="rotate(3.48184 68.564 25)" fill="url(#paint8_radial_26_3)"/>
<rect x="68.564" y="25" width="312.149" height="312.149" rx="156.075" transform="rotate(3.48184 68.564 25)" fill="url(#paint9_radial_26_3)" fill-opacity="0.7"/>
<g filter="url(#filter10_f_26_3)">
<path d="M175.51 72.0819C179.802 77.904 166.069 90.0383 147.939 103.406C129.809 116.774 114.147 126.313 109.855 120.491C105.562 114.669 114.264 95.6904 132.394 82.3226C150.524 68.9549 171.217 66.2599 175.51 72.0819Z" fill="white"/>
<path d="M173.904 73.266C174.372 73.9012 174.562 74.8996 173.741 76.7389C172.912 78.594 171.216 80.8788 168.687 83.5398C163.654 88.8349 155.812 95.1222 146.755 101.8C137.698 108.478 129.371 114.113 122.822 117.357C119.531 118.987 116.846 119.933 114.828 120.176C112.826 120.418 111.929 119.941 111.461 119.307C110.871 118.507 110.52 116.906 110.981 114.297C111.428 111.766 112.583 108.639 114.466 105.193C118.228 98.3134 124.739 90.4458 133.578 83.9286C142.417 77.4115 151.855 73.519 159.537 71.9616C163.384 71.1818 166.712 71.0035 169.261 71.3256C171.888 71.6575 173.314 72.4662 173.904 73.266Z" stroke="white" stroke-width="3.99061"/>
</g>
<g filter="url(#filter11_f_26_3)">
<circle cx="100.276" cy="135.076" r="5.71005" transform="rotate(3.48184 100.276 135.076)" fill="white"/>
<circle cx="100.276" cy="135.076" r="3.71474" transform="rotate(3.48184 100.276 135.076)" stroke="white" stroke-width="3.99061"/>
</g>
<g filter="url(#filter12_f_26_3)">
<ellipse cx="91.5402" cy="157.328" rx="5.71005" ry="9.51675" transform="rotate(15.6404 91.5402 157.328)" fill="white"/>
<path d="M95.1174 158.33C94.4897 160.572 93.3981 162.355 92.2433 163.447C91.0548 164.571 90.0908 164.733 89.5125 164.571C88.9341 164.409 88.1945 163.77 87.7623 162.193C87.3423 160.66 87.3353 158.569 87.963 156.327C88.5908 154.085 89.6824 152.301 90.8372 151.21C92.0257 150.086 92.9897 149.924 93.568 150.085C94.1463 150.247 94.886 150.887 95.3182 152.464C95.7382 153.997 95.7452 156.088 95.1174 158.33Z" stroke="white" stroke-width="3.99061"/>
</g>
<g filter="url(#filter13_f_26_3)">
<circle cx="218.875" cy="200.588" r="160.697" transform="rotate(3.48184 218.875 200.588)" stroke="white" stroke-width="28.4331"/>
</g>
</g>
</g>
<g opacity="0.8" filter="url(#filter14_bii_26_3)">
<g clip-path="url(#clip4_26_3)">
<rect x="-0.15625" y="168" width="469.165" height="469.165" rx="234.583" transform="rotate(20.0494 -0.15625 168)" fill="#A347EB"/>
<rect x="-0.15625" y="168" width="469.165" height="469.165" rx="234.583" transform="rotate(20.0494 -0.15625 168)" fill="url(#paint10_radial_26_3)" fill-opacity="0.4"/>
<rect x="-0.15625" y="168" width="469.165" height="469.165" rx="234.583" transform="rotate(20.0494 -0.15625 168)" fill="url(#paint11_radial_26_3)"/>
<rect x="-0.15625" y="168" width="469.165" height="469.165" rx="234.583" transform="rotate(20.0494 -0.15625 168)" fill="url(#paint12_radial_26_3)" fill-opacity="0.7"/>
<g filter="url(#filter15_f_26_3)">
<path d="M76.2315 302.97C83.0801 311.414 63.3016 330.584 37.0071 351.911C10.7127 373.238 -12.1406 388.646 -18.9892 380.202C-25.8378 371.758 -14.0884 342.661 12.206 321.334C38.5005 300.006 69.3828 294.526 76.2315 302.97Z" fill="white"/>
<path d="M73.9023 304.859C74.6495 305.78 75.0039 307.266 73.8979 310.084C72.7823 312.927 70.3939 316.475 66.7812 320.646C59.5921 328.945 48.2535 338.928 35.118 349.582C21.9825 360.236 9.87053 369.273 0.263076 374.598C-4.56495 377.273 -8.53135 378.879 -11.5446 379.385C-14.5327 379.887 -15.9134 379.233 -16.66 378.313C-17.6005 377.153 -18.2381 374.774 -17.7276 370.825C-17.2323 366.993 -15.7143 362.218 -13.1253 356.915C-7.95506 346.324 1.27588 334.06 14.0952 323.663C26.9145 313.265 40.8159 306.767 52.2417 303.896C57.9633 302.459 62.9475 301.96 66.7975 302.267C70.7648 302.584 72.9614 303.699 73.9023 304.859Z" stroke="white" stroke-width="5.99795"/>
</g>
<g filter="url(#filter16_f_26_3)">
<circle cx="141.131" cy="485.375" r="241.53" transform="rotate(20.0494 141.131 485.375)" stroke="white" stroke-width="42.7354"/>
</g>
</g>
</g>
<g opacity="0.8" filter="url(#filter17_ii_26_3)">
<g clip-path="url(#clip5_26_3)">
<rect x="1160.17" y="566" width="636.38" height="636.38" rx="318.19" transform="rotate(20.0494 1160.17 566)" fill="#A347EB"/>
<rect x="1160.17" y="566" width="636.38" height="636.38" rx="318.19" transform="rotate(20.0494 1160.17 566)" fill="url(#paint13_radial_26_3)"/>
<rect x="1160.17" y="566" width="636.38" height="636.38" rx="318.19" transform="rotate(20.0494 1160.17 566)" fill="url(#paint14_radial_26_3)"/>
<rect x="1160.17" y="566" width="636.38" height="636.38" rx="318.19" transform="rotate(20.0494 1160.17 566)" fill="url(#paint15_radial_26_3)" fill-opacity="0.5"/>
<rect x="1160.17" y="566" width="636.38" height="636.38" rx="318.19" transform="rotate(20.0494 1160.17 566)" fill="url(#paint16_radial_26_3)" fill-opacity="0.7"/>
<g filter="url(#filter18_f_26_3)">
<path d="M1263.78 749.074C1273.07 760.527 1246.24 786.531 1210.58 815.459C1174.91 844.387 1143.91 865.286 1134.62 853.833C1125.34 842.379 1141.27 802.911 1176.94 773.983C1212.6 745.055 1254.49 737.621 1263.78 749.074Z" fill="white"/>
<path d="M1260.62 751.637C1261.64 752.886 1262.12 754.902 1260.62 758.725C1259.1 762.581 1255.86 767.393 1250.96 773.05C1241.21 784.307 1225.83 797.848 1208.02 812.299C1190.2 826.751 1173.77 839.009 1160.74 846.231C1154.19 849.86 1148.81 852.039 1144.72 852.725C1140.67 853.405 1138.8 852.519 1137.78 851.27C1136.51 849.697 1135.64 846.47 1136.34 841.114C1137.01 835.917 1139.07 829.439 1142.58 822.245C1149.59 807.881 1162.11 791.246 1179.5 777.142C1196.89 763.039 1215.74 754.224 1231.24 750.331C1239 748.381 1245.76 747.705 1250.99 748.121C1256.37 748.55 1259.35 750.063 1260.62 751.637Z" stroke="white" stroke-width="8.13568"/>
</g>
<g filter="url(#filter19_f_26_3)">
<circle cx="1116.49" cy="884.437" r="11.6411" transform="rotate(0.838939 1116.49 884.437)" fill="white"/>
<circle cx="1116.49" cy="884.437" r="7.57326" transform="rotate(0.838939 1116.49 884.437)" stroke="white" stroke-width="8.13568"/>
</g>
<g filter="url(#filter20_f_26_3)">
<ellipse cx="1100.79" cy="930.575" rx="11.6411" ry="19.4018" transform="rotate(12.9975 1100.79 930.575)" fill="white"/>
<path d="M1108.17 932.279C1107.1 936.904 1105.05 940.638 1102.8 942.971C1100.48 945.371 1098.53 945.792 1097.34 945.517C1096.15 945.241 1094.58 944.009 1093.55 940.837C1092.55 937.755 1092.34 933.498 1093.41 928.872C1094.48 924.247 1096.53 920.512 1098.78 918.18C1101.1 915.78 1103.05 915.359 1104.24 915.634C1105.43 915.91 1107 917.142 1108.03 920.314C1109.03 923.396 1109.24 927.653 1108.17 932.279Z" stroke="white" stroke-width="8.13568"/>
</g>
<g filter="url(#filter21_f_26_3)">
<circle cx="1351.81" cy="996.49" r="327.614" transform="rotate(20.0494 1351.81 996.49)" stroke="white" stroke-width="57.9667"/>
</g>
</g>
</g>
<g opacity="0.8" filter="url(#filter22_ii_26_3)">
<g clip-path="url(#clip6_26_3)">
<rect x="353.936" y="801.679" width="436.618" height="436.618" rx="218.309" transform="rotate(33.2282 353.936 801.679)" fill="#EB6F47" fill-opacity="0.8"/>
<rect x="353.936" y="801.679" width="436.618" height="436.618" rx="218.309" transform="rotate(33.2282 353.936 801.679)" fill="url(#paint17_radial_26_3)"/>
<rect x="353.936" y="801.679" width="436.618" height="436.618" rx="218.309" transform="rotate(33.2282 353.936 801.679)" fill="url(#paint18_radial_26_3)"/>
<rect x="353.936" y="801.679" width="436.618" height="436.618" rx="218.309" transform="rotate(33.2282 353.936 801.679)" fill="url(#paint19_radial_26_3)" fill-opacity="0.7"/>
<g filter="url(#filter23_f_26_3)">
<path d="M394.515 940.186C398.929 949.29 376.94 962.464 348.589 976.21C320.238 989.956 296.261 999.068 291.847 989.964C287.433 980.859 304.253 956.987 332.604 943.241C360.955 929.495 390.101 931.081 394.515 940.186Z" fill="white"/>
<path d="M392.003 941.403C392.485 942.397 392.491 943.818 390.891 946.137C389.277 948.476 386.36 951.185 382.201 954.197C373.926 960.191 361.534 966.832 347.371 973.699C333.208 980.565 320.316 986.184 310.481 988.97C305.538 990.37 301.603 990.984 298.766 990.803C295.952 990.624 294.839 989.739 294.358 988.746C293.752 987.496 293.679 985.204 294.979 981.735C296.241 978.368 298.63 974.363 302.101 970.107C309.033 961.608 319.999 952.454 333.821 945.752C347.643 939.051 361.618 936.112 372.581 935.935C378.07 935.847 382.692 936.452 386.115 937.547C389.643 938.676 391.397 940.153 392.003 941.403Z" stroke="white" stroke-width="5.58187"/>
</g>
<g filter="url(#filter24_f_26_3)">
<circle cx="274.944" cy="1007.57" r="7.98692" transform="rotate(14.0178 274.944 1007.57)" fill="white"/>
<circle cx="274.944" cy="1007.57" r="5.19599" transform="rotate(14.0178 274.944 1007.57)" stroke="white" stroke-width="5.58187"/>
</g>
<g filter="url(#filter25_f_26_3)">
<ellipse cx="257.24" cy="1035.94" rx="7.98692" ry="13.3115" transform="rotate(26.1763 257.24 1035.94)" fill="white"/>
<path d="M261.903 1038.23C260.466 1041.15 258.509 1043.33 256.641 1044.53C254.72 1045.77 253.352 1045.75 252.599 1045.38C251.845 1045.01 250.991 1043.94 250.8 1041.66C250.615 1039.44 251.14 1036.57 252.577 1033.65C254.013 1030.72 255.971 1028.55 257.838 1027.34C259.76 1026.1 261.127 1026.12 261.881 1026.5C262.635 1026.87 263.488 1027.93 263.679 1030.21C263.865 1032.43 263.339 1035.31 261.903 1038.23Z" stroke="white" stroke-width="5.58187"/>
</g>
<g filter="url(#filter26_f_26_3)">
<circle cx="414.619" cy="1119.24" r="224.775" transform="rotate(33.2282 414.619 1119.24)" stroke="white" stroke-width="39.7708"/>
</g>
</g>
</g>
<g opacity="0.8" filter="url(#filter27_iif_26_3)">
<g clip-path="url(#clip7_26_3)">
<rect x="996.404" y="2" width="193.695" height="193.695" rx="96.8473" transform="rotate(20.0494 996.404 2)" fill="#A347EB"/>
<rect x="996.404" y="2" width="193.695" height="193.695" rx="96.8473" transform="rotate(20.0494 996.404 2)" fill="url(#paint20_radial_26_3)"/>
<rect x="996.404" y="2" width="193.695" height="193.695" rx="96.8473" transform="rotate(20.0494 996.404 2)" fill="url(#paint21_radial_26_3)" fill-opacity="0.5"/>
<rect x="996.404" y="2" width="193.695" height="193.695" rx="96.8473" transform="rotate(20.0494 996.404 2)" fill="url(#paint22_radial_26_3)" fill-opacity="0.7"/>
<g filter="url(#filter28_f_26_3)">
<path d="M1027.94 57.7222C1030.77 61.2082 1022.6 69.1228 1011.75 77.9276C1000.89 86.7325 991.456 93.0934 988.629 89.6074C985.802 86.1214 990.652 74.1085 1001.51 65.3037C1012.36 56.4988 1025.11 54.2362 1027.94 57.7222Z" fill="white"/>
<path d="M1026.98 58.5021C1027.29 58.8824 1027.43 59.4959 1026.98 60.6595C1026.52 61.8331 1025.53 63.2979 1024.04 65.0197C1021.07 68.4459 1016.39 72.5675 1010.97 76.966C1005.54 81.3645 1000.54 85.0955 996.577 87.2936C994.584 88.3983 992.947 89.0614 991.702 89.2702C990.469 89.4773 989.899 89.2075 989.591 88.8275C989.202 88.3488 988.939 87.3664 989.15 85.7362C989.354 84.1543 989.981 82.1828 991.05 79.9933C993.184 75.621 996.995 70.5579 1002.29 66.2652C1007.58 61.9726 1013.32 59.2898 1018.04 58.1047C1020.4 57.5112 1022.46 57.3054 1024.05 57.4322C1025.68 57.5627 1026.59 58.0232 1026.98 58.5021Z" stroke="white" stroke-width="2.47625"/>
</g>
<g filter="url(#filter29_f_26_3)">
<circle cx="983.109" cy="98.9224" r="3.54319" transform="rotate(0.838939 983.109 98.9224)" fill="white"/>
<circle cx="983.109" cy="98.9224" r="2.30507" transform="rotate(0.838939 983.109 98.9224)" stroke="white" stroke-width="2.47625"/>
</g>
<g filter="url(#filter30_f_26_3)">
<ellipse cx="978.331" cy="112.966" rx="3.54319" ry="5.90532" transform="rotate(12.9975 978.331 112.966)" fill="white"/>
<path d="M980.577 113.484C980.252 114.892 979.626 116.028 978.942 116.738C978.237 117.469 977.644 117.597 977.281 117.513C976.918 117.429 976.441 117.054 976.128 116.089C975.824 115.151 975.76 113.855 976.085 112.447C976.41 111.039 977.035 109.903 977.72 109.193C978.424 108.462 979.017 108.334 979.38 108.418C979.743 108.502 980.22 108.877 980.533 109.842C980.837 110.78 980.902 112.076 980.577 113.484Z" stroke="white" stroke-width="2.47625"/>
</g>
<g filter="url(#filter31_f_26_3)">
<circle cx="1054.73" cy="133.028" r="99.7156" transform="rotate(20.0494 1054.73 133.028)" stroke="white" stroke-width="17.6433"/>
</g>
</g>
</g>
<g opacity="0.8" filter="url(#filter32_ii_26_3)">
<g clip-path="url(#clip8_26_3)">
<rect x="1549.68" y="252" width="317.176" height="317.176" rx="158.588" transform="rotate(60 1549.68 252)" fill="#498EF5"/>
<rect x="1549.68" y="252" width="317.176" height="317.176" rx="158.588" transform="rotate(60 1549.68 252)" fill="url(#paint23_radial_26_3)"/>
<rect x="1549.68" y="252" width="317.176" height="317.176" rx="158.588" transform="rotate(60 1549.68 252)" fill="url(#paint24_radial_26_3)"/>
<rect x="1549.68" y="252" width="317.176" height="317.176" rx="158.588" transform="rotate(60 1549.68 252)" fill="url(#paint25_radial_26_3)" fill-opacity="0.7"/>
<g filter="url(#filter33_f_26_3)">
<path d="M1437.36 356.9C1442.49 362.164 1430.35 376.285 1413.96 392.258C1397.56 408.23 1383.12 420.006 1377.99 414.742C1372.87 409.478 1378.99 389.166 1395.38 373.194C1411.78 357.221 1432.23 351.636 1437.36 356.9Z" fill="white"/>
<path d="M1435.91 358.315C1436.47 358.889 1436.8 359.868 1436.23 361.833C1435.65 363.816 1434.26 366.351 1432.08 369.381C1427.75 375.409 1420.73 382.827 1412.54 390.806C1404.35 398.785 1396.75 405.613 1390.61 409.787C1387.53 411.885 1384.95 413.21 1382.96 413.735C1380.98 414.256 1380.01 413.901 1379.45 413.327C1378.74 412.604 1378.17 411.041 1378.27 408.352C1378.37 405.742 1379.1 402.433 1380.51 398.704C1383.34 391.256 1388.81 382.433 1396.8 374.646C1404.79 366.859 1413.75 361.63 1421.27 358.996C1425.03 357.677 1428.36 357.036 1430.97 357.006C1433.66 356.976 1435.2 357.592 1435.91 358.315Z" stroke="white" stroke-width="4.05488"/>
</g>
<g filter="url(#filter34_f_26_3)">
<circle cx="1370.38" cy="430.753" r="5.80201" transform="rotate(-4.37084 1370.38 430.753)" fill="white"/>
<circle cx="1370.38" cy="430.753" r="3.77457" transform="rotate(-4.37084 1370.38 430.753)" stroke="white" stroke-width="4.05488"/>
</g>
<g filter="url(#filter35_f_26_3)">
<ellipse cx="1364.67" cy="454.364" rx="5.80201" ry="9.67001" transform="rotate(7.7877 1364.67 454.364)" fill="white"/>
<path d="M1368.41 454.876C1368.09 457.22 1367.24 459.166 1366.23 460.426C1365.19 461.722 1364.24 462.019 1363.64 461.936C1363.03 461.854 1362.2 461.313 1361.55 459.785C1360.91 458.301 1360.61 456.197 1360.93 453.853C1361.26 451.509 1362.11 449.562 1363.12 448.303C1364.16 447.007 1365.11 446.71 1365.71 446.792C1366.31 446.875 1367.15 447.416 1367.8 448.943C1368.44 450.428 1368.73 452.532 1368.41 454.876Z" stroke="white" stroke-width="4.05488"/>
</g>
<g filter="url(#filter36_f_26_3)">
<circle cx="1485.13" cy="477.814" r="163.285" transform="rotate(60 1485.13 477.814)" stroke="white" stroke-width="28.891"/>
</g>
</g>
</g>
</g>
<defs>
<filter id="filter0_iif_26_3" x="1055" y="-160" width="409.06" height="409.06" filterUnits="userSpaceOnUse" color-interpolation-filters="sRGB">
<feFlood flood-opacity="0" result="BackgroundImageFix"/>
<feBlend mode="normal" in="SourceGraphic" in2="BackgroundImageFix" result="shape"/>
<feColorMatrix in="SourceAlpha" type="matrix" values="0 0 0 0 0 0 0 0 0 0 0 0 0 0 0 0 0 0 127 0" result="hardAlpha"/>
<feOffset dx="-1.7237" dy="-1.7237"/>
<feGaussianBlur stdDeviation="16.5906"/>
<feComposite in2="hardAlpha" operator="arithmetic" k2="-1" k3="1"/>
<feColorMatrix type="matrix" values="0 0 0 0 1 0 0 0 0 1 0 0 0 0 1 0 0 0 0.22 0"/>
<feBlend mode="normal" in2="shape" result="effect1_innerShadow_26_3"/>
<feColorMatrix in="SourceAlpha" type="matrix" values="0 0 0 0 0 0 0 0 0 0 0 0 0 0 0 0 0 0 127 0" result="hardAlpha"/>
<feOffset dx="6.89478" dy="6.89478"/>
<feGaussianBlur stdDeviation="35.3358"/>
<feComposite in2="hardAlpha" operator="arithmetic" k2="-1" k3="1"/>
<feColorMatrix type="matrix" values="0 0 0 0 1 0 0 0 0 1 0 0 0 0 1 0 0 0 0.25 0"/>
<feBlend mode="normal" in2="effect1_innerShadow_26_3" result="effect2_innerShadow_26_3"/>
<feGaussianBlur stdDeviation="6" result="effect3_foregroundBlur_26_3"/>
</filter>
<filter id="filter1_f_26_3" x="1140.7" y="-23.1882" width="23.9379" height="23.9379" filterUnits="userSpaceOnUse" color-interpolation-filters="sRGB">
<feFlood flood-opacity="0" result="BackgroundImageFix"/>
<feBlend mode="normal" in="SourceGraphic" in2="BackgroundImageFix" result="shape"/>
<feGaussianBlur stdDeviation="3.23193" result="effect1_foregroundBlur_26_3"/>
</filter>
<filter id="filter2_f_26_3" x="1130.1" y="-6.34817" width="26.56" height="32.4349" filterUnits="userSpaceOnUse" color-interpolation-filters="sRGB">
<feFlood flood-opacity="0" result="BackgroundImageFix"/>
<feBlend mode="normal" in="SourceGraphic" in2="BackgroundImageFix" result="shape"/>
<feGaussianBlur stdDeviation="3.66285" result="effect1_foregroundBlur_26_3"/>
</filter>
<filter id="filter3_f_26_3" x="1051.92" y="-147.987" width="399.989" height="399.989" filterUnits="userSpaceOnUse" color-interpolation-filters="sRGB">
<feFlood flood-opacity="0" result="BackgroundImageFix"/>
<feBlend mode="normal" in="SourceGraphic" in2="BackgroundImageFix" result="shape"/>
<feGaussianBlur stdDeviation="16.3751" result="effect1_foregroundBlur_26_3"/>
</filter>
<filter id="filter4_iif_26_3" x="-37.8734" y="818.127" width="361.164" height="361.164" filterUnits="userSpaceOnUse" color-interpolation-filters="sRGB">
<feFlood flood-opacity="0" result="BackgroundImageFix"/>
<feBlend mode="normal" in="SourceGraphic" in2="BackgroundImageFix" result="shape"/>
<feColorMatrix in="SourceAlpha" type="matrix" values="0 0 0 0 0 0 0 0 0 0 0 0 0 0 0 0 0 0 127 0" result="hardAlpha"/>
<feOffset dx="-1.73657" dy="-1.73657"/>
<feGaussianBlur stdDeviation="16.7145"/>
<feComposite in2="hardAlpha" operator="arithmetic" k2="-1" k3="1"/>
<feColorMatrix type="matrix" values="0 0 0 0 1 0 0 0 0 1 0 0 0 0 1 0 0 0 0.22 0"/>
<feBlend mode="normal" in2="shape" result="effect1_innerShadow_26_3"/>
<feColorMatrix in="SourceAlpha" type="matrix" values="0 0 0 0 0 0 0 0 0 0 0 0 0 0 0 0 0 0 127 0" result="hardAlpha"/>
<feOffset dx="6.94627" dy="6.94627"/>
<feGaussianBlur stdDeviation="35.5996"/>
<feComposite in2="hardAlpha" operator="arithmetic" k2="-1" k3="1"/>
<feColorMatrix type="matrix" values="0 0 0 0 1 0 0 0 0 1 0 0 0 0 1 0 0 0 0.25 0"/>
<feBlend mode="normal" in2="effect1_innerShadow_26_3" result="effect2_innerShadow_26_3"/>
<feGaussianBlur stdDeviation="2.93672" result="effect3_foregroundBlur_26_3"/>
</filter>
<filter id="filter5_f_26_3" x="36.9654" y="887.805" width="81.3519" height="72.5895" filterUnits="userSpaceOnUse" color-interpolation-filters="sRGB">
<feFlood flood-opacity="0" result="BackgroundImageFix"/>
<feBlend mode="normal" in="SourceGraphic" in2="BackgroundImageFix" result="shape"/>
<feGaussianBlur stdDeviation="6.07798" result="effect1_foregroundBlur_26_3"/>
</filter>
<filter id="filter6_f_26_3" x="31.0079" y="948.46" width="22.9635" height="22.9635" filterUnits="userSpaceOnUse" color-interpolation-filters="sRGB">
<feFlood flood-opacity="0" result="BackgroundImageFix"/>
<feBlend mode="normal" in="SourceGraphic" in2="BackgroundImageFix" result="shape"/>
<feGaussianBlur stdDeviation="3.25606" result="effect1_foregroundBlur_26_3"/>
</filter>
<filter id="filter7_f_26_3" x="23.2175" y="964.109" width="25.1401" height="31.0577" filterUnits="userSpaceOnUse" color-interpolation-filters="sRGB">
<feFlood flood-opacity="0" result="BackgroundImageFix"/>
<feBlend mode="normal" in="SourceGraphic" in2="BackgroundImageFix" result="shape"/>
<feGaussianBlur stdDeviation="3.6902" result="effect1_foregroundBlur_26_3"/>
</filter>
<filter id="filter8_f_26_3" x="-42.3185" y="822.509" width="370.536" height="370.536" filterUnits="userSpaceOnUse" color-interpolation-filters="sRGB">
<feFlood flood-opacity="0" result="BackgroundImageFix"/>
<feBlend mode="normal" in="SourceGraphic" in2="BackgroundImageFix" result="shape"/>
<feGaussianBlur stdDeviation="16.4974" result="effect1_foregroundBlur_26_3"/>
</filter>
<filter id="filter9_iif_26_3" x="45.6066" y="21" width="342.512" height="342.512" filterUnits="userSpaceOnUse" color-interpolation-filters="sRGB">
<feFlood flood-opacity="0" result="BackgroundImageFix"/>
<feBlend mode="normal" in="SourceGraphic" in2="BackgroundImageFix" result="shape"/>
<feColorMatrix in="SourceAlpha" type="matrix" values="0 0 0 0 0 0 0 0 0 0 0 0 0 0 0 0 0 0 127 0" result="hardAlpha"/>
<feOffset dx="-1.99531" dy="-1.99531"/>
<feGaussianBlur stdDeviation="19.2048"/>
<feComposite in2="hardAlpha" operator="arithmetic" k2="-1" k3="1"/>
<feColorMatrix type="matrix" values="0 0 0 0 1 0 0 0 0 1 0 0 0 0 1 0 0 0 0.22 0"/>
<feBlend mode="normal" in2="shape" result="effect1_innerShadow_26_3"/>
<feColorMatrix in="SourceAlpha" type="matrix" values="0 0 0 0 0 0 0 0 0 0 0 0 0 0 0 0 0 0 127 0" result="hardAlpha"/>
<feOffset dx="7.98123" dy="7.98123"/>
<feGaussianBlur stdDeviation="40.9038"/>
<feComposite in2="hardAlpha" operator="arithmetic" k2="-1" k3="1"/>
<feColorMatrix type="matrix" values="0 0 0 0 1 0 0 0 0 1 0 0 0 0 1 0 0 0 0.25 0"/>
<feBlend mode="normal" in2="effect1_innerShadow_26_3" result="effect2_innerShadow_26_3"/>
<feGaussianBlur stdDeviation="2" result="effect3_foregroundBlur_26_3"/>
</filter>
<filter id="filter10_f_26_3" x="94.8073" y="55.2108" width="95.461" height="80.9903" filterUnits="userSpaceOnUse" color-interpolation-filters="sRGB">
<feFlood flood-opacity="0" result="BackgroundImageFix"/>
<feBlend mode="normal" in="SourceGraphic" in2="BackgroundImageFix" result="shape"/>
<feGaussianBlur stdDeviation="6.98357" result="effect1_foregroundBlur_26_3"/>
</filter>
<filter id="filter11_f_26_3" x="87.0837" y="121.884" width="26.3853" height="26.3852" filterUnits="userSpaceOnUse" color-interpolation-filters="sRGB">
<feFlood flood-opacity="0" result="BackgroundImageFix"/>
<feBlend mode="normal" in="SourceGraphic" in2="BackgroundImageFix" result="shape"/>
<feGaussianBlur stdDeviation="3.7412" result="effect1_foregroundBlur_26_3"/>
</filter>
<filter id="filter12_f_26_3" x="76.991" y="139.554" width="29.0985" height="35.5486" filterUnits="userSpaceOnUse" color-interpolation-filters="sRGB">
<feFlood flood-opacity="0" result="BackgroundImageFix"/>
<feBlend mode="normal" in="SourceGraphic" in2="BackgroundImageFix" result="shape"/>
<feGaussianBlur stdDeviation="4.24003" result="effect1_foregroundBlur_26_3"/>
</filter>
<filter id="filter13_f_26_3" x="6.04463" y="-12.2421" width="425.66" height="425.66" filterUnits="userSpaceOnUse" color-interpolation-filters="sRGB">
<feFlood flood-opacity="0" result="BackgroundImageFix"/>
<feBlend mode="normal" in="SourceGraphic" in2="BackgroundImageFix" result="shape"/>
<feGaussianBlur stdDeviation="18.9554" result="effect1_foregroundBlur_26_3"/>
</filter>
<filter id="filter14_bii_26_3" x="-189" y="140" width="657.576" height="657.576" filterUnits="userSpaceOnUse" color-interpolation-filters="sRGB">
<feFlood flood-opacity="0" result="BackgroundImageFix"/>
<feGaussianBlur in="BackgroundImageFix" stdDeviation="14"/>
<feComposite in2="SourceAlpha" operator="in" result="effect1_backgroundBlur_26_3"/>
<feBlend mode="normal" in="SourceGraphic" in2="effect1_backgroundBlur_26_3" result="shape"/>
<feColorMatrix in="SourceAlpha" type="matrix" values="0 0 0 0 0 0 0 0 0 0 0 0 0 0 0 0 0 0 127 0" result="hardAlpha"/>
<feOffset dx="-2.99898" dy="-2.99898"/>
<feGaussianBlur stdDeviation="28.8652"/>
<feComposite in2="hardAlpha" operator="arithmetic" k2="-1" k3="1"/>
<feColorMatrix type="matrix" values="0 0 0 0 1 0 0 0 0 1 0 0 0 0 1 0 0 0 0.22 0"/>
<feBlend mode="normal" in2="shape" result="effect2_innerShadow_26_3"/>
<feColorMatrix in="SourceAlpha" type="matrix" values="0 0 0 0 0 0 0 0 0 0 0 0 0 0 0 0 0 0 127 0" result="hardAlpha"/>
<feOffset dx="11.9959" dy="11.9959"/>
<feGaussianBlur stdDeviation="61.479"/>
<feComposite in2="hardAlpha" operator="arithmetic" k2="-1" k3="1"/>
<feColorMatrix type="matrix" values="0 0 0 0 1 0 0 0 0 1 0 0 0 0 1 0 0 0 0.25 0"/>
<feBlend mode="normal" in2="effect2_innerShadow_26_3" result="effect3_innerShadow_26_3"/>
</filter>
<filter id="filter15_f_26_3" x="-41.8996" y="278.189" width="140.491" height="125.359" filterUnits="userSpaceOnUse" color-interpolation-filters="sRGB">
<feFlood flood-opacity="0" result="BackgroundImageFix"/>
<feBlend mode="normal" in="SourceGraphic" in2="BackgroundImageFix" result="shape"/>
<feGaussianBlur stdDeviation="10.4964" result="effect1_foregroundBlur_26_3"/>
</filter>
<filter id="filter16_f_26_3" x="-178.819" y="165.425" width="639.9" height="639.9" filterUnits="userSpaceOnUse" color-interpolation-filters="sRGB">
<feFlood flood-opacity="0" result="BackgroundImageFix"/>
<feBlend mode="normal" in="SourceGraphic" in2="BackgroundImageFix" result="shape"/>
<feGaussianBlur stdDeviation="28.4903" result="effect1_foregroundBlur_26_3"/>
</filter>
<filter id="filter17_ii_26_3" x="937.932" y="561.932" width="836.323" height="836.323" filterUnits="userSpaceOnUse" color-interpolation-filters="sRGB">
<feFlood flood-opacity="0" result="BackgroundImageFix"/>
<feBlend mode="normal" in="SourceGraphic" in2="BackgroundImageFix" result="shape"/>
<feColorMatrix in="SourceAlpha" type="matrix" values="0 0 0 0 0 0 0 0 0 0 0 0 0 0 0 0 0 0 127 0" result="hardAlpha"/>
<feOffset dx="-4.06784" dy="-4.06784"/>
<feGaussianBlur stdDeviation="39.153"/>
<feComposite in2="hardAlpha" operator="arithmetic" k2="-1" k3="1"/>
<feColorMatrix type="matrix" values="0 0 0 0 1 0 0 0 0 1 0 0 0 0 1 0 0 0 0.22 0"/>
<feBlend mode="normal" in2="shape" result="effect1_innerShadow_26_3"/>
<feColorMatrix in="SourceAlpha" type="matrix" values="0 0 0 0 0 0 0 0 0 0 0 0 0 0 0 0 0 0 127 0" result="hardAlpha"/>
<feOffset dx="16.2714" dy="16.2714"/>
<feGaussianBlur stdDeviation="83.3907"/>
<feComposite in2="hardAlpha" operator="arithmetic" k2="-1" k3="1"/>
<feColorMatrix type="matrix" values="0 0 0 0 1 0 0 0 0 1 0 0 0 0 1 0 0 0 0.25 0"/>
<feBlend mode="normal" in2="effect1_innerShadow_26_3" result="effect2_innerShadow_26_3"/>
</filter>
<filter id="filter18_f_26_3" x="1103.55" y="715.461" width="190.564" height="170.038" filterUnits="userSpaceOnUse" color-interpolation-filters="sRGB">
<feFlood flood-opacity="0" result="BackgroundImageFix"/>
<feBlend mode="normal" in="SourceGraphic" in2="BackgroundImageFix" result="shape"/>
<feGaussianBlur stdDeviation="14.2374" result="effect1_foregroundBlur_26_3"/>
</filter>
<filter id="filter19_f_26_3" x="1089.59" y="857.541" width="53.791" height="53.791" filterUnits="userSpaceOnUse" color-interpolation-filters="sRGB">
<feFlood flood-opacity="0" result="BackgroundImageFix"/>
<feBlend mode="normal" in="SourceGraphic" in2="BackgroundImageFix" result="shape"/>
<feGaussianBlur stdDeviation="7.6272" result="effect1_foregroundBlur_26_3"/>
</filter>
<filter id="filter20_f_26_3" x="1071.34" y="894.199" width="58.8896" height="72.7517" filterUnits="userSpaceOnUse" color-interpolation-filters="sRGB">
<feFlood flood-opacity="0" result="BackgroundImageFix"/>
<feBlend mode="normal" in="SourceGraphic" in2="BackgroundImageFix" result="shape"/>
<feGaussianBlur stdDeviation="8.64416" result="effect1_foregroundBlur_26_3"/>
</filter>
<filter id="filter21_f_26_3" x="917.83" y="562.507" width="867.966" height="867.966" filterUnits="userSpaceOnUse" color-interpolation-filters="sRGB">
<feFlood flood-opacity="0" result="BackgroundImageFix"/>
<feBlend mode="normal" in="SourceGraphic" in2="BackgroundImageFix" result="shape"/>
<feGaussianBlur stdDeviation="38.6445" result="effect1_foregroundBlur_26_3"/>
</filter>
<filter id="filter22_ii_26_3" x="111.889" y="798.889" width="618.44" height="618.44" filterUnits="userSpaceOnUse" color-interpolation-filters="sRGB">
<feFlood flood-opacity="0" result="BackgroundImageFix"/>
<feBlend mode="normal" in="SourceGraphic" in2="BackgroundImageFix" result="shape"/>
<feColorMatrix in="SourceAlpha" type="matrix" values="0 0 0 0 0 0 0 0 0 0 0 0 0 0 0 0 0 0 127 0" result="hardAlpha"/>
<feOffset dx="-2.79093" dy="-2.79093"/>
<feGaussianBlur stdDeviation="26.8627"/>
<feComposite in2="hardAlpha" operator="arithmetic" k2="-1" k3="1"/>
<feColorMatrix type="matrix" values="0 0 0 0 1 0 0 0 0 1 0 0 0 0 1 0 0 0 0.22 0"/>
<feBlend mode="normal" in2="shape" result="effect1_innerShadow_26_3"/>
<feColorMatrix in="SourceAlpha" type="matrix" values="0 0 0 0 0 0 0 0 0 0 0 0 0 0 0 0 0 0 127 0" result="hardAlpha"/>
<feOffset dx="11.1637" dy="11.1637"/>
<feGaussianBlur stdDeviation="57.2141"/>
<feComposite in2="hardAlpha" operator="arithmetic" k2="-1" k3="1"/>
<feColorMatrix type="matrix" values="0 0 0 0 1 0 0 0 0 1 0 0 0 0 1 0 0 0 0.25 0"/>
<feBlend mode="normal" in2="effect1_innerShadow_26_3" result="effect2_innerShadow_26_3"/>
</filter>
<filter id="filter23_f_26_3" x="271.611" y="913.599" width="143.006" height="99.5626" filterUnits="userSpaceOnUse" color-interpolation-filters="sRGB">
<feFlood flood-opacity="0" result="BackgroundImageFix"/>
<feBlend mode="normal" in="SourceGraphic" in2="BackgroundImageFix" result="shape"/>
<feGaussianBlur stdDeviation="9.76826" result="effect1_foregroundBlur_26_3"/>
</filter>
<filter id="filter24_f_26_3" x="256.49" y="989.116" width="36.9096" height="36.9098" filterUnits="userSpaceOnUse" color-interpolation-filters="sRGB">
<feFlood flood-opacity="0" result="BackgroundImageFix"/>
<feBlend mode="normal" in="SourceGraphic" in2="BackgroundImageFix" result="shape"/>
<feGaussianBlur stdDeviation="5.233" result="effect1_foregroundBlur_26_3"/>
</filter>
<filter id="filter25_f_26_3" x="236.112" y="1011.62" width="42.2556" height="48.6397" filterUnits="userSpaceOnUse" color-interpolation-filters="sRGB">
<feFlood flood-opacity="0" result="BackgroundImageFix"/>
<feBlend mode="normal" in="SourceGraphic" in2="BackgroundImageFix" result="shape"/>
<feGaussianBlur stdDeviation="5.93073" result="effect1_foregroundBlur_26_3"/>
</filter>
<filter id="filter26_f_26_3" x="116.903" y="821.52" width="595.432" height="595.432" filterUnits="userSpaceOnUse" color-interpolation-filters="sRGB">
<feFlood flood-opacity="0" result="BackgroundImageFix"/>
<feBlend mode="normal" in="SourceGraphic" in2="BackgroundImageFix" result="shape"/>
<feGaussianBlur stdDeviation="26.5139" result="effect1_foregroundBlur_26_3"/>
</filter>
<filter id="filter27_iif_26_3" x="926" y="-2" width="257.313" height="257.313" filterUnits="userSpaceOnUse" color-interpolation-filters="sRGB">
<feFlood flood-opacity="0" result="BackgroundImageFix"/>
<feBlend mode="normal" in="SourceGraphic" in2="BackgroundImageFix" result="shape"/>
<feColorMatrix in="SourceAlpha" type="matrix" values="0 0 0 0 0 0 0 0 0 0 0 0 0 0 0 0 0 0 127 0" result="hardAlpha"/>
<feOffset dx="-1.23813" dy="-1.23813"/>
<feGaussianBlur stdDeviation="11.917"/>
<feComposite in2="hardAlpha" operator="arithmetic" k2="-1" k3="1"/>
<feColorMatrix type="matrix" values="0 0 0 0 1 0 0 0 0 1 0 0 0 0 1 0 0 0 0.22 0"/>
<feBlend mode="normal" in2="shape" result="effect1_innerShadow_26_3"/>
<feColorMatrix in="SourceAlpha" type="matrix" values="0 0 0 0 0 0 0 0 0 0 0 0 0 0 0 0 0 0 127 0" result="hardAlpha"/>
<feOffset dx="4.9525" dy="4.9525"/>
<feGaussianBlur stdDeviation="25.3816"/>
<feComposite in2="hardAlpha" operator="arithmetic" k2="-1" k3="1"/>
<feColorMatrix type="matrix" values="0 0 0 0 1 0 0 0 0 1 0 0 0 0 1 0 0 0 0.25 0"/>
<feBlend mode="normal" in2="effect1_innerShadow_26_3" result="effect2_innerShadow_26_3"/>
<feGaussianBlur stdDeviation="2" result="effect3_foregroundBlur_26_3"/>
</filter>
<filter id="filter28_f_26_3" x="979.17" y="47.4913" width="58.0017" height="51.7544" filterUnits="userSpaceOnUse" color-interpolation-filters="sRGB">
<feFlood flood-opacity="0" result="BackgroundImageFix"/>
<feBlend mode="normal" in="SourceGraphic" in2="BackgroundImageFix" result="shape"/>
<feGaussianBlur stdDeviation="4.33344" result="effect1_foregroundBlur_26_3"/>
</filter>
<filter id="filter29_f_26_3" x="974.923" y="90.7363" width="16.3723" height="16.3724" filterUnits="userSpaceOnUse" color-interpolation-filters="sRGB">
<feFlood flood-opacity="0" result="BackgroundImageFix"/>
<feBlend mode="normal" in="SourceGraphic" in2="BackgroundImageFix" result="shape"/>
<feGaussianBlur stdDeviation="2.32149" result="effect1_foregroundBlur_26_3"/>
</filter>
<filter id="filter30_f_26_3" x="969.369" y="101.894" width="17.9242" height="22.1434" filterUnits="userSpaceOnUse" color-interpolation-filters="sRGB">
<feFlood flood-opacity="0" result="BackgroundImageFix"/>
<feBlend mode="normal" in="SourceGraphic" in2="BackgroundImageFix" result="shape"/>
<feGaussianBlur stdDeviation="2.63102" result="effect1_foregroundBlur_26_3"/>
</filter>
<filter id="filter31_f_26_3" x="922.643" y="0.936674" width="264.182" height="264.182" filterUnits="userSpaceOnUse" color-interpolation-filters="sRGB">
<feFlood flood-opacity="0" result="BackgroundImageFix"/>
<feBlend mode="normal" in="SourceGraphic" in2="BackgroundImageFix" result="shape"/>
<feGaussianBlur stdDeviation="11.7622" result="effect1_foregroundBlur_26_3"/>
</filter>
<filter id="filter32_ii_26_3" x="1272.97" y="249.973" width="443.408" height="443.408" filterUnits="userSpaceOnUse" color-interpolation-filters="sRGB">
<feFlood flood-opacity="0" result="BackgroundImageFix"/>
<feBlend mode="normal" in="SourceGraphic" in2="BackgroundImageFix" result="shape"/>
<feColorMatrix in="SourceAlpha" type="matrix" values="0 0 0 0 0 0 0 0 0 0 0 0 0 0 0 0 0 0 127 0" result="hardAlpha"/>
<feOffset dx="-2.02744" dy="-2.02744"/>
<feGaussianBlur stdDeviation="19.5141"/>
<feComposite in2="hardAlpha" operator="arithmetic" k2="-1" k3="1"/>
<feColorMatrix type="matrix" values="0 0 0 0 1 0 0 0 0 1 0 0 0 0 1 0 0 0 0.22 0"/>
<feBlend mode="normal" in2="shape" result="effect1_innerShadow_26_3"/>
<feColorMatrix in="SourceAlpha" type="matrix" values="0 0 0 0 0 0 0 0 0 0 0 0 0 0 0 0 0 0 127 0" result="hardAlpha"/>
<feOffset dx="8.10976" dy="8.10976"/>
<feGaussianBlur stdDeviation="41.5625"/>
<feComposite in2="hardAlpha" operator="arithmetic" k2="-1" k3="1"/>
<feColorMatrix type="matrix" values="0 0 0 0 1 0 0 0 0 1 0 0 0 0 1 0 0 0 0.25 0"/>
<feBlend mode="normal" in2="effect1_innerShadow_26_3" result="effect2_innerShadow_26_3"/>
</filter>
<filter id="filter33_f_26_3" x="1362.04" y="340.786" width="90.7052" height="89.4202" filterUnits="userSpaceOnUse" color-interpolation-filters="sRGB">
<feFlood flood-opacity="0" result="BackgroundImageFix"/>
<feBlend mode="normal" in="SourceGraphic" in2="BackgroundImageFix" result="shape"/>
<feGaussianBlur stdDeviation="7.09604" result="effect1_foregroundBlur_26_3"/>
</filter>
<filter id="filter34_f_26_3" x="1356.97" y="417.348" width="26.8103" height="26.8104" filterUnits="userSpaceOnUse" color-interpolation-filters="sRGB">
<feFlood flood-opacity="0" result="BackgroundImageFix"/>
<feBlend mode="normal" in="SourceGraphic" in2="BackgroundImageFix" result="shape"/>
<feGaussianBlur stdDeviation="3.80145" result="effect1_foregroundBlur_26_3"/>
</filter>
<filter id="filter35_f_26_3" x="1350.16" y="436.134" width="29.0278" height="36.4604" filterUnits="userSpaceOnUse" color-interpolation-filters="sRGB">
<feFlood flood-opacity="0" result="BackgroundImageFix"/>
<feBlend mode="normal" in="SourceGraphic" in2="BackgroundImageFix" result="shape"/>
<feGaussianBlur stdDeviation="4.30831" result="effect1_foregroundBlur_26_3"/>
</filter>
<filter id="filter36_f_26_3" x="1268.85" y="261.533" width="432.563" height="432.563" filterUnits="userSpaceOnUse" color-interpolation-filters="sRGB">
<feFlood flood-opacity="0" result="BackgroundImageFix"/>
<feBlend mode="normal" in="SourceGraphic" in2="BackgroundImageFix" result="shape"/>
<feGaussianBlur stdDeviation="19.2607" result="effect1_foregroundBlur_26_3"/>
</filter>
<linearGradient id="paint0_linear_26_3" x1="577.5" y1="-89.5001" x2="1275" y2="1356.5" gradientUnits="userSpaceOnUse">
<stop stop-color="#CBE3FF"/>
<stop offset="1" stop-color="#B4BBFF"/>
</linearGradient>
<radialGradient id="paint1_radial_26_3" cx="0" cy="0" r="1" gradientUnits="userSpaceOnUse" gradientTransform="translate(1562.2 2.46139) rotate(125.175) scale(168.36)">
<stop stop-color="#B541EC"/>
<stop offset="1" stop-color="#D441EC" stop-opacity="0"/>
</radialGradient>
<radialGradient id="paint2_radial_26_3" cx="0" cy="0" r="1" gradientUnits="userSpaceOnUse" gradientTransform="translate(1390.5 41.7806) rotate(15.3564) scale(182.128)">
<stop stop-color="#9641EC"/>
<stop offset="1" stop-color="#6341EC" stop-opacity="0"/>
</radialGradient>
<radialGradient id="paint3_radial_26_3" cx="0" cy="0" r="1" gradientUnits="userSpaceOnUse" gradientTransform="translate(1410.43 -93.2153) rotate(49.1576) scale(283.78)">
<stop stop-color="white"/>
<stop offset="0.97449" stop-color="white" stop-opacity="0"/>
</radialGradient>
<radialGradient id="paint4_radial_26_3" cx="0" cy="0" r="1" gradientUnits="userSpaceOnUse" gradientTransform="translate(252.585 959.836) rotate(125.175) scale(151.994)">
<stop stop-color="#B541EC"/>
<stop offset="1" stop-color="#D441EC" stop-opacity="0"/>
</radialGradient>
<radialGradient id="paint5_radial_26_3" cx="0" cy="0" r="1" gradientUnits="userSpaceOnUse" gradientTransform="translate(97.5808 995.333) rotate(15.3564) scale(164.424)">
<stop stop-color="#419AEC"/>
<stop offset="1" stop-color="#6341EC" stop-opacity="0"/>
</radialGradient>
<radialGradient id="paint6_radial_26_3" cx="0" cy="0" r="1" gradientUnits="userSpaceOnUse" gradientTransform="translate(115.566 873.459) rotate(49.1576) scale(256.195)">
<stop stop-color="white"/>
<stop offset="0.97449" stop-color="white" stop-opacity="0"/>
</radialGradient>
<radialGradient id="paint7_radial_26_3" cx="0" cy="0" r="1" gradientUnits="userSpaceOnUse" gradientTransform="translate(288.537 181.075) rotate(125.175) scale(174.641)">
<stop stop-color="#EC41A7"/>
<stop offset="1" stop-color="#EC419D" stop-opacity="0"/>
</radialGradient>
<radialGradient id="paint8_radial_26_3" cx="0" cy="0" r="1" gradientUnits="userSpaceOnUse" gradientTransform="translate(110.438 221.861) rotate(15.3564) scale(188.923)">
<stop stop-color="#4171EC"/>
<stop offset="1" stop-color="#6341EC" stop-opacity="0"/>
</radialGradient>
<radialGradient id="paint9_radial_26_3" cx="0" cy="0" r="1" gradientUnits="userSpaceOnUse" gradientTransform="translate(131.103 81.8286) rotate(49.1576) scale(294.367)">
<stop stop-color="white"/>
<stop offset="0.97449" stop-color="white" stop-opacity="0"/>
</radialGradient>
<radialGradient id="paint10_radial_26_3" cx="0" cy="0" r="1" gradientUnits="userSpaceOnUse" gradientTransform="translate(330.466 402.583) rotate(131.444) scale(324.328)">
<stop stop-color="#EC9341"/>
<stop offset="1" stop-color="#ECB241" stop-opacity="0"/>
</radialGradient>
<radialGradient id="paint11_radial_26_3" cx="0" cy="0" r="1" gradientUnits="userSpaceOnUse" gradientTransform="translate(62.7805 463.885) rotate(15.3564) scale(283.954)">
<stop stop-color="#419AEC"/>
<stop offset="1" stop-color="#6341EC" stop-opacity="0"/>
</radialGradient>
<radialGradient id="paint12_radial_26_3" cx="0" cy="0" r="1" gradientUnits="userSpaceOnUse" gradientTransform="translate(93.8402 253.414) rotate(49.1576) scale(442.438)">
<stop stop-color="white"/>
<stop offset="0.97449" stop-color="white" stop-opacity="0"/>
</radialGradient>
<radialGradient id="paint13_radial_26_3" cx="0" cy="0" r="1" gradientUnits="userSpaceOnUse" gradientTransform="translate(1608.63 884.19) rotate(125.175) scale(356.041)">
<stop stop-color="#B541EC"/>
<stop offset="1" stop-color="#D441EC" stop-opacity="0"/>
</radialGradient>
<radialGradient id="paint14_radial_26_3" cx="0" cy="0" r="1" gradientUnits="userSpaceOnUse" gradientTransform="translate(1246.12 781.599) rotate(24.2921) scale(338.373)">
<stop stop-color="#53ACFF"/>
<stop offset="1" stop-color="#5685FF" stop-opacity="0"/>
</radialGradient>
<radialGradient id="paint15_radial_26_3" cx="0" cy="0" r="1" gradientUnits="userSpaceOnUse" gradientTransform="translate(1499.65 1111.69) rotate(-91.6409) scale(342)">
<stop stop-color="#ECB241"/>
<stop offset="1" stop-color="#ECB241" stop-opacity="0"/>
</radialGradient>
<radialGradient id="paint16_radial_26_3" cx="0" cy="0" r="1" gradientUnits="userSpaceOnUse" gradientTransform="translate(1287.67 681.857) rotate(49.1576) scale(600.127)">
<stop stop-color="white"/>
<stop offset="0.97449" stop-color="white" stop-opacity="0"/>
</radialGradient>
<radialGradient id="paint17_radial_26_3" cx="0" cy="0" r="1" gradientUnits="userSpaceOnUse" gradientTransform="translate(661.622 1019.99) rotate(125.175) scale(244.279)">
<stop stop-color="#B541EC"/>
<stop offset="1" stop-color="#D441EC" stop-opacity="0"/>
</radialGradient>
<radialGradient id="paint18_radial_26_3" cx="0" cy="0" r="1" gradientUnits="userSpaceOnUse" gradientTransform="translate(412.506 1077.04) rotate(15.3564) scale(264.256)">
<stop stop-color="#51ABFF"/>
<stop offset="1" stop-color="#4786FF" stop-opacity="0"/>
</radialGradient>
<radialGradient id="paint19_radial_26_3" cx="0" cy="0" r="1" gradientUnits="userSpaceOnUse" gradientTransform="translate(441.412 881.168) rotate(49.1576) scale(411.745)">
<stop stop-color="white"/>
<stop offset="0.97449" stop-color="white" stop-opacity="0"/>
</radialGradient>
<radialGradient id="paint20_radial_26_3" cx="0" cy="0" r="1" gradientUnits="userSpaceOnUse" gradientTransform="translate(1132.9 98.8472) rotate(125.175) scale(108.368)">
<stop stop-color="#7841EC"/>
<stop offset="1" stop-color="#8C41EC" stop-opacity="0"/>
</radialGradient>
<radialGradient id="paint21_radial_26_3" cx="0" cy="0" r="1" gradientUnits="userSpaceOnUse" gradientTransform="translate(1022.39 124.156) rotate(15.3564) scale(117.23)">
<stop stop-color="#ECA741"/>
<stop offset="1" stop-color="#ECBC41" stop-opacity="0"/>
</radialGradient>
<radialGradient id="paint22_radial_26_3" cx="0" cy="0" r="1" gradientUnits="userSpaceOnUse" gradientTransform="translate(1035.21 37.2632) rotate(49.1576) scale(182.66)">
<stop stop-color="white"/>
<stop offset="0.97449" stop-color="white" stop-opacity="0"/>
</radialGradient>
<radialGradient id="paint23_radial_26_3" cx="0" cy="0" r="1" gradientUnits="userSpaceOnUse" gradientTransform="translate(1773.2 410.588) rotate(125.175) scale(177.453)">
<stop stop-color="#B541EC"/>
<stop offset="1" stop-color="#D441EC" stop-opacity="0"/>
</radialGradient>
<radialGradient id="paint24_radial_26_3" cx="0" cy="0" r="1" gradientUnits="userSpaceOnUse" gradientTransform="translate(1592.23 452.031) rotate(15.3564) scale(191.965)">
<stop stop-color="#9641EC"/>
<stop offset="1" stop-color="#6341EC" stop-opacity="0"/>
</radialGradient>
<radialGradient id="paint25_radial_26_3" cx="0" cy="0" r="1" gradientUnits="userSpaceOnUse" gradientTransform="translate(1613.23 309.744) rotate(49.1576) scale(299.108)">
<stop stop-color="white"/>
<stop offset="0.97449" stop-color="white" stop-opacity="0"/>
</radialGradient>
<clipPath id="clip0_26_3">
<rect width="1600" height="1200" fill="white"/>
</clipPath>
<clipPath id="clip1_26_3">
<rect x="1350.14" y="-148" width="300.923" height="300.923" rx="150.461" transform="rotate(70.202 1350.14 -148)" fill="white"/>
</clipPath>
<clipPath id="clip2_26_3">
<rect x="61.137" y="824" width="271.671" height="271.671" rx="135.836" transform="rotate(20.0494 61.137 824)" fill="white"/>
</clipPath>
<clipPath id="clip3_26_3">
<rect x="68.564" y="25" width="312.149" height="312.149" rx="156.075" transform="rotate(3.48184 68.564 25)" fill="white"/>
</clipPath>
<clipPath id="clip4_26_3">
<rect x="-0.15625" y="168" width="469.165" height="469.165" rx="234.583" transform="rotate(20.0494 -0.15625 168)" fill="white"/>
</clipPath>
<clipPath id="clip5_26_3">
<rect x="1160.17" y="566" width="636.38" height="636.38" rx="318.19" transform="rotate(20.0494 1160.17 566)" fill="white"/>
</clipPath>
<clipPath id="clip6_26_3">
<rect x="353.936" y="801.679" width="436.618" height="436.618" rx="218.309" transform="rotate(33.2282 353.936 801.679)" fill="white"/>
</clipPath>
<clipPath id="clip7_26_3">
<rect x="996.404" y="2" width="193.695" height="193.695" rx="96.8473" transform="rotate(20.0494 996.404 2)" fill="white"/>
</clipPath>
<clipPath id="clip8_26_3">
<rect x="1549.68" y="252" width="317.176" height="317.176" rx="158.588" transform="rotate(60 1549.68 252)" fill="white"/>
</clipPath>
</defs>
</svg>
