<svg width="68" height="57" viewBox="0 0 68 57" fill="none" xmlns="http://www.w3.org/2000/svg">
<path d="M64.0282 4.25352H53.0422V1.61267C53.0422 0.978871 52.6197 0.556335 51.9859 0.556335C51.3521 0.556335 50.9296 0.978871 50.9296 1.61267V4.25352H35.1901V1.61267C35.1901 0.978871 34.7676 0.556335 34.1338 0.556335C33.5 0.556335 33.0775 0.978871 33.0775 1.61267V4.25352H17.338V1.61267C17.338 0.978871 16.9155 0.556335 16.2817 0.556335C15.6479 0.556335 15.2254 0.978871 15.2254 1.61267V4.25352H4.23944C2.33804 4.25352 0.75351 5.83803 0.75351 7.73943V52.7394C0.75351 54.6408 2.33804 56.2253 4.23944 56.2253H64.0282C65.9296 56.2253 67.5141 54.6408 67.5141 52.7394V7.6338C67.5141 5.73239 65.9296 4.25352 64.0282 4.25352ZM64.0282 54.007H4.23944C3.50001 54.007 2.86619 53.3732 2.86619 52.6338V18.3028H47.7606C48.3944 18.3028 48.8169 17.8803 48.8169 17.2465C48.8169 16.6127 48.3944 16.1901 47.7606 16.1901H2.86619V7.6338C2.86619 6.89436 3.50001 6.26056 4.23944 6.26056H15.2254V8.90141C15.2254 9.53521 15.6479 9.95774 16.2817 9.95774C16.9155 9.95774 17.338 9.53521 17.338 8.90141V6.36619H33.0775V9.00704C33.0775 9.64084 33.5 10.0634 34.1338 10.0634C34.7676 10.0634 35.1901 9.64084 35.1901 9.00704V6.36619H50.9296V9.00704C50.9296 9.64084 51.3521 10.0634 51.9859 10.0634C52.6197 10.0634 53.0422 9.64084 53.0422 9.00704V6.36619H64.0282C64.7676 6.36619 65.4014 7 65.4014 7.73943V16.2958H55.3662C54.7324 16.2958 54.3099 16.7183 54.3099 17.3521C54.3099 17.9859 54.7324 18.4084 55.3662 18.4084H65.4014V52.7394C65.4014 53.3732 64.7676 54.007 64.0282 54.007Z" fill="#231F20"/>
<path d="M53.2535 17.2465C53.2535 16.6127 52.831 16.1901 52.1972 16.1901H51.1408C50.507 16.1901 50.0845 16.6127 50.0845 17.2465C50.0845 17.8803 50.507 18.3028 51.1408 18.3028H52.1972C52.831 18.3028 53.2535 17.8803 53.2535 17.2465Z" fill="#231F20"/>
<path d="M15.0141 25.3803H8.57043C7.93663 25.3803 7.51409 25.8028 7.51409 26.4366C7.51409 27.0704 7.93663 27.493 8.57043 27.493H15.0141C15.6479 27.493 16.0704 27.0704 16.0704 26.4366C16.0704 25.8028 15.5422 25.3803 15.0141 25.3803Z" fill="#231F20"/>
<path d="M26.2113 25.3803H19.7676C19.1338 25.3803 18.7112 25.8028 18.7112 26.4366C18.7112 27.0704 19.1338 27.493 19.7676 27.493H26.2113C26.8451 27.493 27.2676 27.0704 27.2676 26.4366C27.2676 25.8028 26.8451 25.3803 26.2113 25.3803Z" fill="#231F20"/>
<path d="M37.4084 25.3803H30.9648C30.331 25.3803 29.9084 25.8028 29.9084 26.4366C29.9084 27.0704 30.331 27.493 30.9648 27.493H37.4084C38.0422 27.493 38.4648 27.0704 38.4648 26.4366C38.4648 25.8028 38.0422 25.3803 37.4084 25.3803Z" fill="#231F20"/>
<path d="M48.6056 25.3803H42.162C41.5282 25.3803 41.1056 25.8028 41.1056 26.4366C41.1056 27.0704 41.5282 27.493 42.162 27.493H48.6056C49.2394 27.493 49.662 27.0704 49.662 26.4366C49.662 25.8028 49.2394 25.3803 48.6056 25.3803Z" fill="#231F20"/>
<path d="M59.8028 25.3803H53.3592C52.7254 25.3803 52.3028 25.8028 52.3028 26.4366C52.3028 27.0704 52.7254 27.493 53.3592 27.493H59.8028C60.4366 27.493 60.8592 27.0704 60.8592 26.4366C60.8592 25.8028 60.4366 25.3803 59.8028 25.3803Z" fill="#231F20"/>
<path d="M15.0141 34.993H8.57043C7.93663 34.993 7.51409 35.4155 7.51409 36.0493C7.51409 36.6831 7.93663 37.1056 8.57043 37.1056H15.0141C15.6479 37.1056 16.0704 36.6831 16.0704 36.0493C16.0704 35.4155 15.5422 34.993 15.0141 34.993Z" fill="#231F20"/>
<path d="M26.2113 34.993H19.7676C19.1338 34.993 18.7112 35.4155 18.7112 36.0493C18.7112 36.6831 19.1338 37.1056 19.7676 37.1056H26.2113C26.8451 37.1056 27.2676 36.6831 27.2676 36.0493C27.2676 35.4155 26.8451 34.993 26.2113 34.993Z" fill="#231F20"/>
<path d="M37.4084 34.993H30.9648C30.331 34.993 29.9084 35.4155 29.9084 36.0493C29.9084 36.6831 30.331 37.1056 30.9648 37.1056H37.4084C38.0422 37.1056 38.4648 36.6831 38.4648 36.0493C38.4648 35.4155 38.0422 34.993 37.4084 34.993Z" fill="#231F20"/>
<path d="M48.6056 34.993H42.162C41.5282 34.993 41.1056 35.4155 41.1056 36.0493C41.1056 36.6831 41.5282 37.1056 42.162 37.1056H48.6056C49.2394 37.1056 49.662 36.6831 49.662 36.0493C49.662 35.4155 49.2394 34.993 48.6056 34.993Z" fill="#231F20"/>
<path d="M59.8028 34.993H53.3592C52.7254 34.993 52.3028 35.4155 52.3028 36.0493C52.3028 36.6831 52.7254 37.1056 53.3592 37.1056H59.8028C60.4366 37.1056 60.8592 36.6831 60.8592 36.0493C60.8592 35.4155 60.4366 34.993 59.8028 34.993Z" fill="#231F20"/>
<path d="M15.0141 44.7113H8.57043C7.93663 44.7113 7.51409 45.1338 7.51409 45.7676C7.51409 46.4014 7.93663 46.8239 8.57043 46.8239H15.0141C15.6479 46.8239 16.0704 46.4014 16.0704 45.7676C16.0704 45.1338 15.5422 44.7113 15.0141 44.7113Z" fill="#231F20"/>
<path d="M26.2113 44.7113H19.7676C19.1338 44.7113 18.7112 45.1338 18.7112 45.7676C18.7112 46.4014 19.1338 46.8239 19.7676 46.8239H26.2113C26.8451 46.8239 27.2676 46.4014 27.2676 45.7676C27.2676 45.1338 26.8451 44.7113 26.2113 44.7113Z" fill="#231F20"/>
<path d="M37.4084 44.7113H30.9648C30.331 44.7113 29.9084 45.1338 29.9084 45.7676C29.9084 46.4014 30.331 46.8239 30.9648 46.8239H37.4084C38.0422 46.8239 38.4648 46.4014 38.4648 45.7676C38.4648 45.1338 38.0422 44.7113 37.4084 44.7113Z" fill="#231F20"/>
<path d="M48.6056 44.7113H42.162C41.5282 44.7113 41.1056 45.1338 41.1056 45.7676C41.1056 46.4014 41.5282 46.8239 42.162 46.8239H48.6056C49.2394 46.8239 49.662 46.4014 49.662 45.7676C49.662 45.1338 49.2394 44.7113 48.6056 44.7113Z" fill="#231F20"/>
<path d="M59.8028 44.7113H53.3592C52.7254 44.7113 52.3028 45.1338 52.3028 45.7676C52.3028 46.4014 52.7254 46.8239 53.3592 46.8239H59.8028C60.4366 46.8239 60.8592 46.4014 60.8592 45.7676C60.8592 45.1338 60.4366 44.7113 59.8028 44.7113Z" fill="#231F20"/>
</svg>
