<svg width="735" height="735" viewBox="0 0 735 735" fill="none" xmlns="http://www.w3.org/2000/svg">
<path d="M734.962 367.481C734.962 398.539 690.299 423.31 682.643 451.928C674.717 481.566 700.783 525.303 685.771 551.25C670.545 577.572 619.464 576.772 598.134 598.134C576.803 619.496 577.572 670.545 551.25 685.771C525.303 700.784 481.566 674.724 451.928 682.643C423.291 690.3 398.52 734.962 367.481 734.962C336.442 734.962 311.653 690.3 283.035 682.643C253.397 674.724 209.66 700.784 183.712 685.771C157.39 670.545 158.191 619.464 136.829 598.134C115.467 576.803 64.4174 577.572 49.1919 551.25C34.1791 525.303 60.2451 481.566 52.3196 451.928C44.6693 423.291 0 398.52 0 367.481C0 336.442 44.6693 311.653 52.3196 283.035C60.2451 253.397 34.1791 209.66 49.1919 183.712C64.4174 157.39 115.498 158.191 136.829 136.829C158.16 115.467 157.39 64.4174 183.712 49.1919C209.66 34.1791 253.397 60.2451 283.035 52.3196C311.671 44.6693 336.449 0 367.481 0C398.514 0 423.31 44.6693 451.928 52.3196C481.566 60.2451 525.303 34.1791 551.25 49.1919C577.572 64.4236 576.772 115.498 598.134 136.835C619.496 158.172 670.545 157.39 685.771 183.712C700.783 209.66 674.717 253.397 682.643 283.035C690.299 311.653 734.962 336.43 734.962 367.481Z" fill="#F05EEA"/>
</svg>
