<svg  viewBox="0 0 274 274" fill="none" xmlns="http://www.w3.org/2000/svg">
<path d="M274 137C274 148.579 257.349 157.813 254.495 168.483C251.54 179.532 261.258 195.837 255.661 205.511C249.985 215.324 230.941 215.025 222.989 222.989C215.037 230.953 215.324 249.985 205.511 255.661C195.837 261.258 179.532 251.543 168.483 254.495C157.806 257.349 148.572 274 137 274C125.429 274 116.187 257.349 105.518 254.495C94.4684 251.543 78.1628 261.258 68.4895 255.661C58.6763 249.985 58.9749 230.941 51.011 222.989C43.0471 215.037 24.0153 215.324 18.3391 205.511C12.7423 195.837 22.4599 179.532 19.5052 168.483C16.6531 157.806 0 148.572 0 137C0 125.429 16.6531 116.187 19.5052 105.518C22.4599 94.4684 12.7423 78.1628 18.3391 68.4895C24.0153 58.6763 43.0587 58.9749 51.011 51.011C58.9632 43.0471 58.6763 24.0153 68.4895 18.3391C78.1628 12.7423 94.4684 22.4599 105.518 19.5052C116.194 16.6531 125.431 0 137 0C148.569 0 157.813 16.6531 168.483 19.5052C179.532 22.4599 195.837 12.7423 205.511 18.3391C215.324 24.0177 215.025 43.0587 222.989 51.0132C230.953 58.9678 249.985 58.6763 255.661 68.4895C261.258 78.1628 251.54 94.4684 254.495 105.518C257.349 116.187 274 125.424 274 137Z" fill="#481694"/>
</svg>
