<svg  viewBox="0 0 356 349" fill="none" xmlns="http://www.w3.org/2000/svg">
<path d="M343.847 186.083C323.381 188.091 311.614 177.148 302.17 168.339C293.765 160.496 287.103 154.31 274.978 155.5C262.853 156.69 257.512 164.054 250.781 173.382C243.217 183.861 233.805 196.862 213.32 198.893C192.836 200.924 181.087 189.958 171.665 181.167C163.26 173.325 156.598 167.139 144.473 168.329C132.348 169.518 127.007 176.882 120.276 186.211C112.713 196.689 103.3 209.69 82.8342 211.699C62.3682 213.707 50.6007 202.764 41.1568 193.955C32.7518 186.112 26.0898 179.926 13.9648 181.116C8.86049 181.638 4.30571 177.895 3.8282 172.786C3.33233 167.7 7.07787 163.142 12.1639 162.643C32.6482 160.612 44.3974 171.577 53.819 180.368C62.224 188.211 68.8859 194.397 81.0109 193.207C93.1359 192.017 98.4769 184.653 105.208 175.325C112.771 164.846 122.184 151.845 142.65 149.837C163.157 147.824 174.884 158.771 184.327 167.58C192.732 175.423 199.372 181.591 211.519 180.419C223.667 179.248 228.985 171.865 235.716 162.537C243.262 152.081 252.692 139.058 273.159 137.049C293.665 135.036 305.392 145.983 314.814 154.774C323.219 162.617 329.881 168.803 342.006 167.613C347.092 167.114 351.646 170.857 352.142 175.943C352.66 181.048 348.933 185.584 343.847 186.083Z" fill="#FFD301"/>
</svg>
