<svg viewBox="0 0 735 735" fill="none" xmlns="http://www.w3.org/2000/svg">
<path d="M734.962 367.481C734.962 398.539 690.299 423.31 682.643 451.928C674.717 481.566 700.783 525.303 685.771 551.25C670.545 577.572 619.464 576.772 598.134 598.134C576.803 619.496 577.572 670.545 551.25 685.771C525.303 700.784 481.566 674.724 451.928 682.643C423.291 690.3 398.52 734.962 367.481 734.962C336.442 734.962 311.653 690.3 283.035 682.643C253.397 674.724 209.659 700.784 183.712 685.771C157.39 670.545 158.191 619.464 136.829 598.134C115.467 576.803 64.4174 577.572 49.1919 551.25C34.1791 525.303 60.2451 481.566 52.3196 451.928C44.6693 423.291 0 398.52 0 367.481C0 336.442 44.6693 311.653 52.3196 283.035C60.2451 253.397 34.1791 209.659 49.1919 183.712C64.4174 157.39 115.498 158.191 136.829 136.829C158.16 115.467 157.39 64.4174 183.712 49.1919C209.659 34.1791 253.397 60.2451 283.035 52.3196C311.671 44.6693 336.449 0 367.481 0C398.514 0 423.31 44.6693 451.928 52.3196C481.566 60.2451 525.303 34.1791 551.25 49.1919C577.572 64.4236 576.772 115.498 598.134 136.835C619.496 158.172 670.545 157.39 685.771 183.712C700.783 209.659 674.717 253.397 682.643 283.035C690.299 311.653 734.962 336.43 734.962 367.481Z" fill="#481694"/>
<path d="M86 459C86 462.634 80.7739 465.533 79.8779 468.881C78.9506 472.349 82.0006 477.467 80.2439 480.503C78.4623 483.583 72.4853 483.49 69.9893 485.989C67.4933 488.489 67.5834 494.462 64.5033 496.244C61.4672 498.001 56.3494 494.951 52.8814 495.878C49.5305 496.774 46.632 502 43 502C39.3681 502 36.4673 496.774 33.1187 495.878C29.6507 494.951 24.5328 498.001 21.4967 496.244C18.4166 494.462 18.5104 488.485 16.0107 485.989C13.5111 483.493 7.53766 483.583 5.75608 480.503C3.9994 477.467 7.04944 472.349 6.12206 468.881C5.22688 465.53 0 462.632 0 459C0 455.368 5.22688 452.467 6.12206 449.119C7.04944 445.651 3.9994 440.533 5.75608 437.497C7.53766 434.417 13.5148 434.51 16.0107 432.011C18.5067 429.511 18.4166 423.538 21.4967 421.756C24.5328 419.999 29.6507 423.049 33.1187 422.122C36.4695 421.227 39.3688 416 43 416C46.6312 416 49.5327 421.227 52.8814 422.122C56.3494 423.049 61.4672 419.999 64.5033 421.756C67.5834 423.538 67.4897 429.515 69.9893 432.011C72.4889 434.508 78.4623 434.417 80.2439 437.497C82.0006 440.533 78.9506 445.651 79.8779 449.119C80.7739 452.467 86 455.367 86 459Z" fill="#FFADE3"/>
<path d="M642.128 602.495C643.664 605.381 621.099 617.247 621.807 620.286C622.535 623.433 647.989 624.2 647.876 627.354C647.762 630.553 622.298 629.537 621.369 632.579C620.441 635.621 642.124 649.009 640.43 651.726C638.761 654.404 617.225 640.815 614.862 643.018C612.578 645.145 624.658 667.593 621.771 669.128C618.885 670.664 607.02 648.099 603.98 648.807C600.833 649.535 600.067 674.989 596.913 674.876C593.713 674.762 594.729 649.298 591.687 648.369C588.645 647.441 575.258 669.124 572.54 667.43C569.862 665.761 583.451 644.225 581.249 641.862C579.121 639.578 556.674 651.658 555.138 648.771C553.603 645.885 576.167 634.02 575.46 630.98C574.731 627.833 549.278 627.067 549.39 623.913C549.504 620.713 574.968 621.729 575.897 618.687C576.825 615.645 555.143 602.258 556.836 599.54C558.505 596.862 580.041 610.451 582.404 608.249C584.688 606.121 572.608 583.674 575.495 582.138C578.381 580.603 590.247 603.167 593.286 602.46C596.433 601.731 597.2 576.278 600.354 576.39C603.553 576.504 602.537 601.968 605.579 602.897C608.621 603.825 622.009 582.143 624.726 583.836C627.404 585.505 613.815 607.041 616.018 609.404C618.143 611.69 640.593 599.608 642.128 602.495Z" fill="#BBD6FF"/>
<path d="M508.295 626.912C499.016 629.238 496.248 632.021 493.92 641.295C493.868 641.497 493.75 641.676 493.584 641.803C493.419 641.931 493.216 642 493.008 642C492.799 642 492.596 641.931 492.431 641.803C492.266 641.676 492.148 641.497 492.095 641.295C489.768 632.021 486.984 629.238 477.705 626.912C477.503 626.86 477.325 626.742 477.197 626.576C477.069 626.411 477 626.209 477 626C477 625.791 477.069 625.589 477.197 625.424C477.325 625.258 477.503 625.14 477.705 625.088C486.984 622.762 489.768 619.979 492.095 610.705C492.148 610.503 492.266 610.324 492.431 610.197C492.596 610.069 492.799 610 493.008 610C493.216 610 493.419 610.069 493.584 610.197C493.75 610.324 493.868 610.503 493.92 610.705C496.248 619.979 499.016 622.762 508.295 625.088C508.497 625.14 508.675 625.258 508.803 625.424C508.931 625.589 509 625.791 509 626C509 626.209 508.931 626.411 508.803 626.576C508.675 626.742 508.497 626.86 508.295 626.912Z" fill="#7BD3CF"/>
<path d="M734.052 570.726C721.584 573.852 717.864 577.59 714.737 590.052C714.666 590.324 714.507 590.564 714.285 590.736C714.063 590.907 713.791 591 713.51 591C713.23 591 712.957 590.907 712.735 590.736C712.513 590.564 712.354 590.324 712.284 590.052C709.157 577.59 705.416 573.852 692.948 570.726C692.677 570.655 692.436 570.496 692.265 570.275C692.093 570.053 692 569.78 692 569.5C692 569.22 692.093 568.947 692.265 568.725C692.436 568.504 692.677 568.345 692.948 568.274C705.416 565.148 709.157 561.41 712.284 548.948C712.354 548.676 712.513 548.436 712.735 548.265C712.957 548.093 713.23 548 713.51 548C713.791 548 714.063 548.093 714.285 548.265C714.507 548.436 714.666 548.676 714.737 548.948C717.864 561.41 721.584 565.148 734.052 568.274C734.323 568.345 734.564 568.504 734.735 568.725C734.907 568.947 735 569.22 735 569.5C735 569.78 734.907 570.053 734.735 570.275C734.564 570.496 734.323 570.655 734.052 570.726Z" fill="#FBC5C5"/>
</svg>
