<svg  viewBox="0 0 2350 1066" fill="none" xmlns="http://www.w3.org/2000/svg">
<g style="mix-blend-mode:lighten">
<path d="M2219.04 2.93678e-06H996.548C988.843 -0.00306304 981.327 2.39459 975.045 6.86003C968.764 11.3255 964.027 17.6373 961.493 24.919C956.313 39.7962 946.635 52.6915 933.801 61.8167C920.966 70.9419 905.613 75.8443 889.869 75.8443C874.125 75.8443 858.771 70.9419 845.937 61.8167C833.103 52.6915 823.424 39.7962 818.244 24.919C815.705 17.641 810.966 11.3329 804.686 6.86837C798.405 2.40385 790.893 0.0036524 783.189 2.93678e-06H0V1066H783.189C790.893 1066.01 798.408 1063.62 804.69 1059.15C810.972 1054.69 815.709 1048.38 818.244 1041.1C823.413 1026.22 833.088 1013.31 845.923 1004.17C858.758 995.04 874.118 990.132 889.869 990.132C905.619 990.132 920.979 995.04 933.815 1004.17C946.65 1013.31 956.324 1026.22 961.493 1041.1C964.034 1048.38 968.772 1054.68 975.053 1059.15C981.334 1063.61 988.846 1066 996.548 1066H2219.04C2219.04 1048.79 2222.43 1031.75 2229.01 1015.86C2235.59 999.959 2245.24 985.515 2257.4 973.348C2269.56 961.182 2284 951.532 2299.89 944.949C2315.77 938.366 2332.8 934.979 2350 934.982V131.018C2332.8 131.021 2315.77 127.634 2299.89 121.051C2284 114.468 2269.56 104.818 2257.4 92.6518C2245.24 80.4854 2235.59 66.0409 2229.01 50.1436C2222.43 34.2464 2219.04 17.2074 2219.04 2.93678e-06ZM883.552 110.95C887.331 106.577 891.883 107.01 894.342 109.493C894.944 110.087 895.42 110.796 895.741 111.579C896.062 112.362 896.221 113.202 896.208 114.048V190.513C892.407 194.887 887.877 194.431 885.396 191.971C884.8 191.373 884.331 190.662 884.014 189.88C883.697 189.097 883.541 188.26 883.552 187.416V110.95ZM883.552 236.707C887.331 232.356 891.883 232.766 894.342 235.249C894.944 235.843 895.42 236.552 895.741 237.335C896.062 238.118 896.221 238.958 896.208 239.805V316.269C892.407 320.62 887.877 320.187 885.396 317.704C884.8 317.106 884.331 316.395 884.014 315.613C883.697 314.831 883.541 313.993 883.552 313.149V236.707ZM883.552 362.486C887.331 358.089 891.883 358.545 894.342 361.005C894.942 361.6 895.417 362.311 895.737 363.093C896.058 363.876 896.218 364.715 896.208 365.561V442.003C892.407 446.399 887.877 445.943 885.396 443.461C884.8 442.863 884.331 442.152 884.014 441.369C883.697 440.587 883.541 439.749 883.552 438.905V362.486ZM883.552 488.219C887.331 483.868 891.883 484.278 894.342 486.784C894.947 487.376 895.424 488.086 895.745 488.869C896.066 489.652 896.223 490.493 896.208 491.339V567.805C892.407 572.155 887.877 571.745 885.396 569.24C884.798 568.643 884.327 567.932 884.011 567.149C883.694 566.367 883.538 565.528 883.552 564.684V488.219ZM883.552 614.021C887.331 609.625 891.883 610.08 894.342 612.54C894.944 613.134 895.42 613.844 895.741 614.627C896.062 615.409 896.221 616.25 896.208 617.096V693.56C892.407 697.911 887.877 697.478 885.396 694.995C884.8 694.397 884.331 693.686 884.014 692.904C883.697 692.122 883.541 691.284 883.552 690.44V614.021ZM896.208 945.004C892.407 949.355 887.877 948.945 885.396 946.439C884.798 945.843 884.327 945.132 884.011 944.349C883.694 943.567 883.538 942.728 883.552 941.884V865.419C887.331 861.068 891.883 861.478 894.342 863.984C894.947 864.576 895.424 865.285 895.745 866.069C896.066 866.852 896.223 867.693 896.208 868.54V945.004ZM896.208 819.226C892.407 823.622 887.877 823.166 885.396 820.706L885.237 820.501C884.156 819.337 883.555 817.807 883.552 816.219V739.777C887.331 735.381 891.883 735.836 894.342 738.296C895.44 739.398 896.096 740.865 896.185 742.419C896.197 742.54 896.197 742.662 896.185 742.783L896.208 819.226Z" fill="url(#paint0_linear_9_47)"/>
</g>
<defs>
<linearGradient id="paint0_linear_9_47" x1="2453.98" y1="12.9377" x2="-1432.54" y2="1514.25" gradientUnits="userSpaceOnUse">
<stop stop-color="#FFEAD3"/>
<stop offset="1" stop-color="#CECECE"/>
</linearGradient>
</defs>
</svg>
