<svg  viewBox="0 0 784 420" fill="none" xmlns="http://www.w3.org/2000/svg">
<path fill-rule="evenodd" clip-rule="evenodd" d="M783.716 66.5854C773.503 66.5854 765.225 58.3043 765.225 48.0894C765.225 37.8744 773.503 29.5935 783.716 29.5935C783.811 29.5935 783.905 29.5942 784 29.5957V0L-6.10352e-05 0V29.5957C0.0966797 29.5942 0.187683 29.5935 0.284424 29.5935C10.4969 29.5935 18.775 37.8744 18.775 48.0894C18.775 58.3043 10.4969 66.5854 0.284424 66.5854C0.187683 66.5854 0.0966797 66.5848 -6.10352e-05 66.5831V96.7502C0.0966797 96.7485 0.187683 96.748 0.284424 96.748C10.4969 96.748 18.775 105.029 18.775 115.244C18.775 125.459 10.4969 133.74 0.284424 133.74H0.238953L0.147888 133.739L0.0966797 133.739L-6.10352e-05 133.738V159.35C27.9634 159.35 50.6357 182.027 50.6357 210C50.6357 237.973 27.9634 260.65 -6.10352e-05 260.65V285.693C0.0966797 285.692 0.187683 285.691 0.284424 285.691C10.4969 285.691 18.775 293.972 18.775 304.187C18.775 314.402 10.4969 322.683 0.284424 322.683C0.187683 322.683 0.0966797 322.682 -6.10352e-05 322.681V352.848C0.0511475 352.847 0.0966797 352.847 0.147888 352.846C0.19342 352.846 0.238892 352.846 0.284424 352.846C10.4969 352.846 18.775 361.127 18.775 371.341C18.775 381.556 10.4969 389.837 0.284424 389.837C0.187683 389.837 0.0966797 389.837 -6.10352e-05 389.835V420H784V389.835C783.905 389.837 783.811 389.837 783.716 389.837C773.503 389.837 765.225 381.556 765.225 371.341C765.225 361.127 773.503 352.846 783.716 352.846C783.811 352.846 783.905 352.846 784 352.848V322.681C783.905 322.682 783.811 322.683 783.716 322.683C773.503 322.683 765.225 314.402 765.225 304.187C765.225 293.972 773.503 285.691 783.716 285.691C783.811 285.691 783.905 285.692 784 285.693V260.65C756.035 260.65 733.364 237.973 733.364 210C733.364 182.027 756.035 159.35 784 159.35V133.738C783.905 133.739 783.811 133.74 783.716 133.74C773.503 133.74 765.225 125.459 765.225 115.244C765.225 105.029 773.503 96.748 783.716 96.748C783.811 96.748 783.905 96.7485 784 96.7502V66.5831C783.905 66.5848 783.811 66.5854 783.716 66.5854Z" fill="#E2ECFF"/>
</svg>
