<svg
        viewBox="0 0 247 116" fill="none" xmlns="http://www.w3.org/2000/svg">
<path d="M247 0H63.2962H63.283V4.48936C63.2807 4.79036 63.1649 5.07957 62.9583 5.30001C62.7518 5.52044 62.4695 5.65611 62.1671 5.68026C62.0033 5.69949 61.8371 5.68483 61.6793 5.6372C61.5214 5.58957 61.3751 5.51001 61.2498 5.40352C61.1244 5.29704 61.0226 5.16594 60.9509 5.01849C60.8791 4.87105 60.8389 4.71044 60.8328 4.54681V0.0104407H60.8196H0.0236456H0.0105377V6.94428L0.0236456 6.95734C3.46349 6.95734 6.24803 9.55589 6.24803 12.7473C6.24803 15.9387 3.46349 18.5268 0.0236456 18.532H0.0105377V21.8174H0.0236456C3.46349 21.8174 6.24803 24.429 6.24803 27.6074C6.24803 30.7857 3.46349 33.3869 0.0236456 33.3947H0.0105377V36.6801H0.0236456C3.46349 36.6801 6.24803 39.2917 6.24803 42.47C6.24567 43.0235 6.15689 43.5732 5.98485 44.0997C5.2295 46.4971 2.84236 48.2495 0.0131079 48.2548H0V51.5376H0.0131079C3.45295 51.5376 6.23749 54.1309 6.23749 57.3223C6.23749 60.5137 3.45295 63.107 0.0131079 63.1122H0V66.3976H0.0131079C3.45295 66.3976 6.23749 68.9936 6.23749 72.185C6.23749 75.3764 3.45295 77.9671 0.0131079 77.9749H0V81.2603H0.0131079C3.45295 81.2603 6.23749 83.8537 6.23749 87.045C6.23749 90.2364 3.45295 92.8298 0.0131079 92.835H0V96.1178H0.0131079C3.45295 96.1178 6.23749 98.7111 6.23749 101.903C6.23749 105.094 3.45295 107.682 0.0131079 107.687H0V115.851H0.0131079H60.8091H60.8222V111.2C60.847 110.894 60.9868 110.609 61.2138 110.401C61.4408 110.193 61.7384 110.078 62.0474 110.078C62.3563 110.078 62.6539 110.193 62.8809 110.401C63.108 110.609 63.2478 110.894 63.2725 111.2V116H63.2857H246.989L247 0ZM63.2751 106C63.269 106.164 63.2288 106.324 63.157 106.472C63.0853 106.619 62.9835 106.75 62.8581 106.857C62.7328 106.963 62.5865 107.043 62.4287 107.091C62.2708 107.138 62.1046 107.153 61.9408 107.134C61.6384 107.109 61.3562 106.974 61.1496 106.753C60.9431 106.533 60.8272 106.244 60.8249 105.943V90.9102C60.8496 90.6047 60.9894 90.3196 61.2164 90.1116C61.4435 89.9037 61.7411 89.7883 62.05 89.7883C62.3589 89.7883 62.6566 89.9037 62.8836 90.1116C63.1106 90.3196 63.2504 90.6047 63.2751 90.9102V106ZM63.2751 85.7105C63.2686 85.874 63.2282 86.0344 63.1563 86.1817C63.0844 86.3289 62.9826 86.4599 62.8573 86.5663C62.732 86.6727 62.586 86.7523 62.4283 86.8C62.2706 86.8478 62.1046 86.8628 61.9408 86.8439C61.6382 86.8192 61.3559 86.683 61.1494 86.4621C60.9429 86.2413 60.8271 85.9517 60.8249 85.6505V70.6206C60.8395 70.3079 60.975 70.0129 61.2031 69.7967C61.4313 69.5806 61.7346 69.46 62.05 69.46C62.3654 69.46 62.6688 69.5806 62.8969 69.7967C63.1251 70.0129 63.2605 70.3079 63.2751 70.6206V85.7105ZM63.2751 65.3608C63.2728 65.6618 63.157 65.951 62.9504 66.1715C62.7438 66.3919 62.4616 66.5276 62.1592 66.5517C61.9956 66.5709 61.8297 66.5564 61.672 66.5089C61.5143 66.4614 61.3682 66.3821 61.2428 66.2759C61.1175 66.1697 61.0157 66.0389 60.9437 65.8917C60.8718 65.7446 60.8313 65.5843 60.8249 65.4209V50.3232C60.8496 50.0176 60.9894 49.7325 61.2164 49.5246C61.4435 49.3167 61.7411 49.2012 62.05 49.2012C62.3589 49.2012 62.6566 49.3167 62.8836 49.5246C63.1106 49.7325 63.2504 50.0176 63.2751 50.3232V65.3608ZM63.2751 45.0712C63.2722 45.372 63.1562 45.6609 62.9498 45.8812C62.7433 46.1015 62.4614 46.2374 62.1592 46.2621C61.9954 46.2809 61.8295 46.266 61.6717 46.2182C61.514 46.1704 61.368 46.0908 61.2427 45.9844C61.1174 45.878 61.0157 45.7471 60.9438 45.5998C60.8719 45.4526 60.8314 45.2922 60.8249 45.1287V30.0388C60.8395 29.7261 60.975 29.431 61.2031 29.2149C61.4313 28.9987 61.7346 28.8781 62.05 28.8781C62.3654 28.8781 62.6688 28.9987 62.8969 29.2149C63.1251 29.431 63.2605 29.7261 63.2751 30.0388V45.0712ZM63.2751 24.779C63.2728 25.08 63.157 25.3692 62.9504 25.5896C62.7438 25.8101 62.4616 25.9457 62.1592 25.9699C61.9955 25.9895 61.8294 25.9752 61.6715 25.9279C61.5137 25.8806 61.3674 25.8013 61.242 25.695C61.1166 25.5887 61.0148 25.4578 60.943 25.3104C60.8712 25.1631 60.831 25.0026 60.8249 24.839V9.74654C60.8496 9.44097 60.9894 9.15585 61.2164 8.94795C61.4435 8.74004 61.7411 8.62459 62.05 8.62459C62.3589 8.62459 62.6566 8.74004 62.8836 8.94795C63.1106 9.15585 63.2504 9.44097 63.2751 9.74654V24.779Z" fill="url(#paint0_linear_9_45)"/>
<defs>
<linearGradient id="paint0_linear_9_45" x1="258.025" y1="6.78757" x2="-379.281" y2="253.205" gradientUnits="userSpaceOnUse">
<stop stop-color="#C77DFF"/>
<stop offset="1" stop-color="#F05EEA"/>
</linearGradient>
</defs>
</svg>
