<svg width="1003" height="414" viewBox="0 0 1003 414" fill="none" xmlns="http://www.w3.org/2000/svg">
<path d="M423.21 0L390.03 90.4L360.75 0H0V414H360.17L390.03 321.8L423.87 414H1002.58V0H423.21ZM394.02 305.85C394.023 306.412 393.908 306.968 393.681 307.482C393.455 307.996 393.124 308.457 392.708 308.834C392.292 309.211 391.801 309.497 391.267 309.672C390.733 309.847 390.169 309.908 389.61 309.85C388.574 309.731 387.619 309.229 386.933 308.443C386.246 307.657 385.878 306.643 385.9 305.6V251.99C385.9 250.913 386.328 249.881 387.089 249.119C387.851 248.358 388.883 247.93 389.96 247.93C391.037 247.93 392.069 248.358 392.831 249.119C393.592 249.881 394.02 250.913 394.02 251.99V305.85ZM394.02 233.23C394.04 234.269 393.674 235.279 392.992 236.065C392.311 236.85 391.362 237.354 390.33 237.48C389.768 237.53 389.201 237.462 388.667 237.282C388.132 237.101 387.64 236.811 387.224 236.43C386.807 236.049 386.474 235.586 386.246 235.069C386.018 234.553 385.9 233.994 385.9 233.43V179.59C385.9 178.513 386.328 177.481 387.089 176.719C387.851 175.958 388.883 175.53 389.96 175.53C391.037 175.53 392.069 175.958 392.831 176.719C393.592 177.481 394.02 178.513 394.02 179.59V233.23ZM394.02 160.83C394.04 161.868 393.673 162.877 392.991 163.661C392.31 164.444 391.361 164.946 390.33 165.07C389.772 165.121 389.209 165.056 388.677 164.879C388.145 164.702 387.655 164.416 387.239 164.04C386.823 163.664 386.489 163.207 386.259 162.695C386.028 162.184 385.906 161.631 385.9 161.07V107.18C385.9 106.103 386.328 105.071 387.089 104.309C387.851 103.548 388.883 103.12 389.96 103.12C391.037 103.12 392.069 103.548 392.831 104.309C393.592 105.071 394.02 106.103 394.02 107.18V160.83Z" fill="#DDF2EF"/>
</svg>
