<svg  viewBox="0 0 289 46" fill="none" xmlns="http://www.w3.org/2000/svg">
<path fill-rule="evenodd" clip-rule="evenodd" d="M122.741 4.96811C109.164 6.43596 95.7463 8.24082 82.6616 10.214C64.1388 13.0053 45.6232 15.8929 27.2192 20.4649C21.426 21.9087 15.543 22.823 9.78604 24.6277C6.17218 25.7587 1.3803 27.3707 0.751422 27.7076C0.422495 27.9001 0.278995 28.1891 0.232626 28.2854C-0.0934032 28.9591 -0.0339149 29.6086 0.150111 30.1139C0.224011 30.3305 0.410882 30.8601 0.929631 30.9322C35.6221 35.8652 71.097 26.24 105.831 25.2293C166.067 23.4968 228.129 30.3788 287.886 45.3942C288.408 45.5145 288.915 44.9127 288.987 44.0224C289.074 43.1561 288.698 42.3139 288.176 42.1936C228.317 27.1542 166.154 20.248 105.802 22.0047C73.4313 22.9431 40.4212 31.3894 8.00519 28.5019C8.74998 28.2612 9.48033 28.0205 10.1469 27.8039C15.8807 25.9992 21.739 25.1089 27.509 23.6652C45.8739 19.0932 64.3518 16.2056 82.85 13.4384C105.802 9.97327 129.755 6.98943 153.895 5.59377C162.532 5.81034 171.139 6.027 179.746 6.2917C198.366 6.86921 217.073 8.55364 235.649 10.8156C241.242 11.5134 246.836 12.2352 252.429 12.8609C254.283 13.0774 259.065 13.703 259.732 13.6548C260.558 13.6067 260.717 12.4518 260.732 12.2593C260.775 11.8262 260.746 11.2245 260.34 10.7192C260.297 10.647 260.036 10.4062 259.456 10.2619C225.68 1.74354 189.614 0.324045 153.924 2.36941C116.279 1.47907 78.4884 1.09389 40.9385 0.684814C40.401 0.684814 39.9619 1.40681 39.9576 2.29715C39.9547 3.18748 40.3879 3.9095 40.9255 3.93356C68.1149 4.22232 95.4419 4.51091 122.741 4.96811Z" fill="#FFD301"/>
</svg>
